<svg width="173" height="29" viewBox="0 0 173 29" fill="none" xmlns="http://www.w3.org/2000/svg">
<path d="M26.44 23V6.2H32.224C33.128 6.2 33.944 6.424 34.672 6.872C35.408 7.32 35.992 7.924 36.424 8.684C36.864 9.444 37.084 10.284 37.084 11.204C37.084 12.14 36.86 12.988 36.412 13.748C35.972 14.5 35.384 15.1 34.648 15.548C33.912 15.996 33.104 16.22 32.224 16.22H28.936V23H26.44ZM28.936 13.724H31.972C32.452 13.724 32.888 13.604 33.28 13.364C33.68 13.124 33.996 12.804 34.228 12.404C34.468 12.004 34.588 11.552 34.588 11.048C34.588 10.544 34.468 10.092 34.228 9.692C33.996 9.284 33.68 8.964 33.28 8.732C32.888 8.492 32.452 8.372 31.972 8.372H28.936V13.724ZM46.1414 13.508C45.9334 13.38 45.7054 13.28 45.4574 13.208C45.2174 13.128 44.9534 13.088 44.6654 13.088C44.0414 13.088 43.4974 13.252 43.0334 13.58C42.5694 13.908 42.2054 14.352 41.9414 14.912C41.6854 15.472 41.5574 16.092 41.5574 16.772V23H39.0494V11H41.5454V12.62C41.9614 12.02 42.4654 11.548 43.0574 11.204C43.6574 10.852 44.3254 10.676 45.0614 10.676C45.3334 10.676 45.5894 10.688 45.8294 10.712C46.0774 10.736 46.3134 10.784 46.5374 10.856L46.1414 13.508ZM52.8138 23.312C51.7098 23.312 50.7018 23.028 49.7898 22.46C48.8858 21.892 48.1618 21.132 47.6178 20.18C47.0818 19.22 46.8138 18.16 46.8138 17C46.8138 16.12 46.9698 15.3 47.2818 14.54C47.5938 13.772 48.0218 13.1 48.5658 12.524C49.1178 11.94 49.7578 11.484 50.4858 11.156C51.2138 10.828 51.9898 10.664 52.8138 10.664C53.7338 10.664 54.5778 10.856 55.3458 11.24C56.1138 11.616 56.7698 12.14 57.3138 12.812C57.8578 13.476 58.2578 14.244 58.5138 15.116C58.7698 15.98 58.8458 16.9 58.7418 17.876H49.4898C49.5938 18.428 49.7938 18.928 50.0898 19.376C50.3938 19.816 50.7778 20.164 51.2418 20.42C51.7138 20.676 52.2378 20.808 52.8138 20.816C53.4218 20.816 53.9738 20.664 54.4698 20.36C54.9738 20.056 55.3858 19.636 55.7058 19.1L58.2378 19.688C57.7578 20.752 57.0338 21.624 56.0658 22.304C55.0978 22.976 54.0138 23.312 52.8138 23.312ZM49.4058 15.968H56.2218C56.1418 15.392 55.9378 14.872 55.6098 14.408C55.2898 13.936 54.8858 13.564 54.3978 13.292C53.9178 13.012 53.3898 12.872 52.8138 12.872C52.2458 12.872 51.7178 13.008 51.2298 13.28C50.7498 13.552 50.3498 13.924 50.0298 14.396C49.7178 14.86 49.5098 15.384 49.4058 15.968ZM67.1946 23H63.9906L59.6106 10.976H62.2746L65.5866 20.12L68.9106 10.976H71.5626L67.1946 23ZM73.4322 11H75.9282V23H73.4322V11ZM74.6922 9.02C74.3162 9.02 74.0002 8.896 73.7442 8.648C73.4882 8.4 73.3602 8.088 73.3602 7.712C73.3602 7.344 73.4882 7.036 73.7442 6.788C74.0002 6.532 74.3162 6.404 74.6922 6.404C75.0602 6.404 75.3722 6.532 75.6282 6.788C75.8842 7.036 76.0122 7.344 76.0122 7.712C76.0122 8.088 75.8842 8.4 75.6282 8.648C75.3722 8.896 75.0602 9.02 74.6922 9.02ZM84.9934 23.312C83.8894 23.312 82.8814 23.028 81.9694 22.46C81.0654 21.892 80.3414 21.132 79.7974 20.18C79.2614 19.22 78.9934 18.16 78.9934 17C78.9934 16.12 79.1494 15.3 79.4614 14.54C79.7734 13.772 80.2014 13.1 80.7454 12.524C81.2974 11.94 81.9374 11.484 82.6654 11.156C83.3934 10.828 84.1694 10.664 84.9934 10.664C86.0974 10.664 87.1014 10.948 88.0054 11.516C88.9174 12.084 89.6414 12.848 90.1774 13.808C90.7214 14.768 90.9934 15.832 90.9934 17C90.9934 17.872 90.8374 18.688 90.5254 19.448C90.2134 20.208 89.7814 20.88 89.2294 21.464C88.6854 22.04 88.0494 22.492 87.3214 22.82C86.6014 23.148 85.8254 23.312 84.9934 23.312ZM84.9934 20.816C85.6574 20.816 86.2534 20.64 86.7814 20.288C87.3094 19.936 87.7254 19.472 88.0294 18.896C88.3414 18.312 88.4974 17.68 88.4974 17C88.4974 16.304 88.3374 15.664 88.0174 15.08C87.7054 14.496 87.2854 14.032 86.7574 13.688C86.2294 13.336 85.6414 13.16 84.9934 13.16C84.3374 13.16 83.7414 13.336 83.2054 13.688C82.6774 14.04 82.2574 14.508 81.9454 15.092C81.6414 15.676 81.4894 16.312 81.4894 17C81.4894 17.712 81.6494 18.356 81.9694 18.932C82.2894 19.508 82.7134 19.968 83.2414 20.312C83.7774 20.648 84.3614 20.816 84.9934 20.816ZM92.6978 17.264V11H95.1938V17.216C95.1938 17.896 95.3338 18.516 95.6138 19.076C95.9018 19.628 96.2898 20.072 96.7778 20.408C97.2738 20.736 97.8378 20.9 98.4698 20.9C99.0858 20.9 99.6258 20.736 100.09 20.408C100.562 20.072 100.926 19.628 101.182 19.076C101.446 18.516 101.578 17.896 101.578 17.216V11H104.074V23H101.578V21.368C101.162 21.968 100.658 22.444 100.066 22.796C99.4738 23.148 98.8058 23.324 98.0618 23.324C96.9898 23.324 96.0498 23.052 95.2418 22.508C94.4418 21.956 93.8218 21.22 93.3818 20.3C92.9418 19.38 92.7138 18.368 92.6978 17.264ZM110.668 23.228C110.036 23.188 109.42 23.06 108.82 22.844C108.22 22.628 107.692 22.336 107.236 21.968C106.788 21.592 106.452 21.152 106.228 20.648L108.352 19.736C108.456 19.952 108.636 20.164 108.892 20.372C109.156 20.58 109.464 20.752 109.816 20.888C110.168 21.016 110.536 21.08 110.92 21.08C111.296 21.08 111.644 21.028 111.964 20.924C112.292 20.812 112.56 20.644 112.768 20.42C112.976 20.196 113.08 19.928 113.08 19.616C113.08 19.264 112.96 18.992 112.72 18.8C112.488 18.6 112.196 18.448 111.844 18.344C111.492 18.24 111.14 18.14 110.788 18.044C110.004 17.868 109.284 17.628 108.628 17.324C107.98 17.012 107.464 16.616 107.08 16.136C106.696 15.648 106.504 15.052 106.504 14.348C106.504 13.58 106.708 12.916 107.116 12.356C107.532 11.788 108.08 11.352 108.76 11.048C109.44 10.744 110.164 10.592 110.932 10.592C111.892 10.592 112.772 10.796 113.572 11.204C114.372 11.612 114.984 12.172 115.408 12.884L113.428 14.06C113.308 13.82 113.128 13.604 112.888 13.412C112.648 13.22 112.376 13.068 112.072 12.956C111.768 12.836 111.452 12.768 111.124 12.752C110.716 12.736 110.336 12.784 109.984 12.896C109.64 13 109.364 13.168 109.156 13.4C108.948 13.632 108.844 13.928 108.844 14.288C108.844 14.64 108.968 14.904 109.216 15.08C109.464 15.248 109.776 15.384 110.152 15.488C110.536 15.592 110.928 15.708 111.328 15.836C112.04 16.06 112.708 16.336 113.332 16.664C113.956 16.984 114.46 17.38 114.844 17.852C115.228 18.324 115.412 18.9 115.396 19.58C115.396 20.332 115.168 20.992 114.712 21.56C114.264 22.128 113.68 22.56 112.96 22.856C112.24 23.152 111.476 23.276 110.668 23.228ZM129.319 23.312C128.399 23.312 127.515 23.168 126.667 22.88C125.819 22.592 125.079 22.18 124.447 21.644C123.815 21.1 123.363 20.456 123.091 19.712L125.431 18.836C125.567 19.22 125.827 19.564 126.211 19.868C126.603 20.164 127.067 20.396 127.603 20.564C128.147 20.732 128.719 20.816 129.319 20.816C129.959 20.816 130.559 20.712 131.119 20.504C131.687 20.296 132.143 20.008 132.487 19.64C132.839 19.272 133.015 18.84 133.015 18.344C133.015 17.832 132.831 17.412 132.463 17.084C132.103 16.756 131.639 16.496 131.071 16.304C130.511 16.112 129.927 15.968 129.319 15.872C128.143 15.68 127.087 15.4 126.151 15.032C125.223 14.664 124.487 14.148 123.943 13.484C123.407 12.82 123.139 11.956 123.139 10.892C123.139 9.892 123.423 9.02 123.991 8.276C124.567 7.532 125.323 6.956 126.259 6.548C127.203 6.132 128.223 5.924 129.319 5.924C130.223 5.924 131.095 6.068 131.935 6.356C132.783 6.636 133.527 7.048 134.167 7.592C134.815 8.128 135.279 8.78 135.559 9.548L133.195 10.4C133.059 10.008 132.799 9.668 132.415 9.38C132.031 9.084 131.567 8.852 131.023 8.684C130.487 8.516 129.919 8.432 129.319 8.432C128.679 8.424 128.079 8.528 127.519 8.744C126.967 8.952 126.515 9.24 126.163 9.608C125.811 9.976 125.635 10.404 125.635 10.892C125.635 11.492 125.799 11.948 126.127 12.26C126.455 12.572 126.895 12.804 127.447 12.956C128.007 13.1 128.631 13.232 129.319 13.352C130.423 13.528 131.443 13.82 132.379 14.228C133.323 14.636 134.079 15.18 134.647 15.86C135.223 16.532 135.511 17.36 135.511 18.344C135.511 19.336 135.223 20.208 134.647 20.96C134.079 21.704 133.323 22.284 132.379 22.7C131.443 23.108 130.423 23.312 129.319 23.312ZM144.362 13.496H141.842L141.83 23H139.334L139.346 13.496H137.438V11H139.346L139.334 7.232H141.83L141.842 11H144.362V13.496ZM151.439 23.312C150.335 23.312 149.327 23.028 148.415 22.46C147.511 21.892 146.787 21.132 146.243 20.18C145.707 19.22 145.439 18.16 145.439 17C145.439 16.12 145.595 15.3 145.907 14.54C146.219 13.772 146.647 13.1 147.191 12.524C147.743 11.94 148.383 11.484 149.111 11.156C149.839 10.828 150.615 10.664 151.439 10.664C152.359 10.664 153.203 10.856 153.971 11.24C154.739 11.616 155.395 12.14 155.939 12.812C156.483 13.476 156.883 14.244 157.139 15.116C157.395 15.98 157.471 16.9 157.367 17.876H148.115C148.219 18.428 148.419 18.928 148.715 19.376C149.019 19.816 149.403 20.164 149.867 20.42C150.339 20.676 150.863 20.808 151.439 20.816C152.047 20.816 152.599 20.664 153.095 20.36C153.599 20.056 154.011 19.636 154.331 19.1L156.863 19.688C156.383 20.752 155.659 21.624 154.691 22.304C153.723 22.976 152.639 23.312 151.439 23.312ZM148.031 15.968H154.847C154.767 15.392 154.563 14.872 154.235 14.408C153.915 13.936 153.511 13.564 153.023 13.292C152.543 13.012 152.015 12.872 151.439 12.872C150.871 12.872 150.343 13.008 149.855 13.28C149.375 13.552 148.975 13.924 148.655 14.396C148.343 14.86 148.135 15.384 148.031 15.968ZM161.874 29H159.378V11H161.874V12.764C162.274 12.148 162.786 11.648 163.41 11.264C164.034 10.88 164.77 10.688 165.618 10.688C166.49 10.688 167.306 10.852 168.066 11.18C168.834 11.508 169.506 11.964 170.082 12.548C170.658 13.124 171.11 13.792 171.438 14.552C171.766 15.312 171.93 16.128 171.93 17C171.93 17.872 171.766 18.692 171.438 19.46C171.11 20.228 170.658 20.904 170.082 21.488C169.506 22.064 168.834 22.516 168.066 22.844C167.306 23.172 166.49 23.336 165.618 23.336C164.77 23.336 164.034 23.144 163.41 22.76C162.786 22.368 162.274 21.868 161.874 21.26V29ZM165.594 13.1C164.898 13.1 164.286 13.276 163.758 13.628C163.23 13.98 162.818 14.452 162.522 15.044C162.226 15.628 162.078 16.28 162.078 17C162.078 17.72 162.226 18.376 162.522 18.968C162.818 19.56 163.23 20.032 163.758 20.384C164.286 20.736 164.898 20.912 165.594 20.912C166.282 20.912 166.914 20.74 167.49 20.396C168.066 20.044 168.526 19.572 168.87 18.98C169.214 18.388 169.386 17.728 169.386 17C169.386 16.288 169.214 15.636 168.87 15.044C168.534 14.452 168.078 13.98 167.502 13.628C166.926 13.276 166.29 13.1 165.594 13.1Z" fill="#6A26ED"/>
<path d="M14 2L2 14L14 26" stroke="#6A26ED" stroke-width="2"/>
</svg>
