<svg width="133" height="29" viewBox="0 0 133 29" fill="none" xmlns="http://www.w3.org/2000/svg">
<path d="M1.584 23V6.2H4.284L11.988 18.488V6.2H14.484V23H11.796L4.068 10.712V23H1.584ZM22.4231 23.312C21.3191 23.312 20.3111 23.028 19.3991 22.46C18.4951 21.892 17.7711 21.132 17.2271 20.18C16.6911 19.22 16.4231 18.16 16.4231 17C16.4231 16.12 16.5791 15.3 16.8911 14.54C17.2031 13.772 17.6311 13.1 18.1751 12.524C18.7271 11.94 19.3671 11.484 20.0951 11.156C20.8231 10.828 21.5991 10.664 22.4231 10.664C23.3431 10.664 24.1871 10.856 24.9551 11.24C25.7231 11.616 26.3791 12.14 26.9231 12.812C27.4671 13.476 27.8671 14.244 28.1231 15.116C28.3791 15.98 28.4551 16.9 28.3511 17.876H19.0991C19.2031 18.428 19.4031 18.928 19.6991 19.376C20.0031 19.816 20.3871 20.164 20.8511 20.42C21.3231 20.676 21.8471 20.808 22.4231 20.816C23.0311 20.816 23.5831 20.664 24.0791 20.36C24.5831 20.056 24.9951 19.636 25.3151 19.1L27.8471 19.688C27.3671 20.752 26.6431 21.624 25.6751 22.304C24.7071 22.976 23.6231 23.312 22.4231 23.312ZM19.0151 15.968H25.8311C25.7511 15.392 25.5471 14.872 25.2191 14.408C24.8991 13.936 24.4951 13.564 24.0071 13.292C23.5271 13.012 22.9991 12.872 22.4231 12.872C21.8551 12.872 21.3271 13.008 20.8391 13.28C20.3591 13.552 19.9591 13.924 19.6391 14.396C19.3271 14.86 19.1191 15.384 19.0151 15.968ZM28.9209 23L33.3129 16.976L28.9449 10.976H32.0289L34.8489 14.84L37.6809 10.976H40.7529L36.3969 16.976L40.7889 23H37.7049L34.8489 19.088L32.0049 23H28.9209ZM49.5182 13.496H46.9982L46.9862 23H44.4902L44.5022 13.496H42.5942V11H44.5022L44.4902 7.232H46.9862L46.9982 11H49.5182V13.496ZM63.4202 23.312C62.5002 23.312 61.6162 23.168 60.7682 22.88C59.9202 22.592 59.1802 22.18 58.5482 21.644C57.9162 21.1 57.4642 20.456 57.1922 19.712L59.5322 18.836C59.6682 19.22 59.9282 19.564 60.3122 19.868C60.7042 20.164 61.1682 20.396 61.7042 20.564C62.2482 20.732 62.8202 20.816 63.4202 20.816C64.0602 20.816 64.6602 20.712 65.2202 20.504C65.7882 20.296 66.2442 20.008 66.5882 19.64C66.9402 19.272 67.1162 18.84 67.1162 18.344C67.1162 17.832 66.9322 17.412 66.5642 17.084C66.2042 16.756 65.7402 16.496 65.1722 16.304C64.6122 16.112 64.0282 15.968 63.4202 15.872C62.2442 15.68 61.1882 15.4 60.2522 15.032C59.3242 14.664 58.5882 14.148 58.0442 13.484C57.5082 12.82 57.2402 11.956 57.2402 10.892C57.2402 9.892 57.5242 9.02 58.0922 8.276C58.6682 7.532 59.4242 6.956 60.3602 6.548C61.3042 6.132 62.3242 5.924 63.4202 5.924C64.3242 5.924 65.1962 6.068 66.0362 6.356C66.8842 6.636 67.6282 7.048 68.2682 7.592C68.9162 8.128 69.3802 8.78 69.6602 9.548L67.2962 10.4C67.1602 10.008 66.9002 9.668 66.5162 9.38C66.1322 9.084 65.6682 8.852 65.1242 8.684C64.5882 8.516 64.0202 8.432 63.4202 8.432C62.7802 8.424 62.1802 8.528 61.6202 8.744C61.0682 8.952 60.6162 9.24 60.2642 9.608C59.9122 9.976 59.7362 10.404 59.7362 10.892C59.7362 11.492 59.9002 11.948 60.2282 12.26C60.5562 12.572 60.9962 12.804 61.5482 12.956C62.1082 13.1 62.7322 13.232 63.4202 13.352C64.5242 13.528 65.5442 13.82 66.4802 14.228C67.4242 14.636 68.1802 15.18 68.7482 15.86C69.3242 16.532 69.6122 17.36 69.6122 18.344C69.6122 19.336 69.3242 20.208 68.7482 20.96C68.1802 21.704 67.4242 22.284 66.4802 22.7C65.5442 23.108 64.5242 23.312 63.4202 23.312ZM78.4635 13.496H75.9435L75.9315 23H73.4355L73.4475 13.496H71.5395V11H73.4475L73.4355 7.232H75.9315L75.9435 11H78.4635V13.496ZM85.5403 23.312C84.4363 23.312 83.4283 23.028 82.5163 22.46C81.6123 21.892 80.8883 21.132 80.3443 20.18C79.8083 19.22 79.5403 18.16 79.5403 17C79.5403 16.12 79.6963 15.3 80.0083 14.54C80.3203 13.772 80.7483 13.1 81.2923 12.524C81.8443 11.94 82.4843 11.484 83.2123 11.156C83.9403 10.828 84.7163 10.664 85.5403 10.664C86.4603 10.664 87.3043 10.856 88.0723 11.24C88.8403 11.616 89.4963 12.14 90.0403 12.812C90.5843 13.476 90.9843 14.244 91.2403 15.116C91.4963 15.98 91.5723 16.9 91.4683 17.876H82.2163C82.3203 18.428 82.5203 18.928 82.8163 19.376C83.1203 19.816 83.5043 20.164 83.9683 20.42C84.4403 20.676 84.9643 20.808 85.5403 20.816C86.1483 20.816 86.7003 20.664 87.1963 20.36C87.7003 20.056 88.1123 19.636 88.4323 19.1L90.9643 19.688C90.4843 20.752 89.7603 21.624 88.7923 22.304C87.8243 22.976 86.7403 23.312 85.5403 23.312ZM82.1323 15.968H88.9483C88.8683 15.392 88.6643 14.872 88.3363 14.408C88.0163 13.936 87.6123 13.564 87.1243 13.292C86.6443 13.012 86.1163 12.872 85.5403 12.872C84.9723 12.872 84.4443 13.008 83.9563 13.28C83.4763 13.552 83.0763 13.924 82.7563 14.396C82.4443 14.86 82.2363 15.384 82.1323 15.968ZM95.9751 29H93.4791V11H95.9751V12.764C96.3751 12.148 96.8871 11.648 97.5111 11.264C98.1351 10.88 98.8711 10.688 99.7191 10.688C100.591 10.688 101.407 10.852 102.167 11.18C102.935 11.508 103.607 11.964 104.183 12.548C104.759 13.124 105.211 13.792 105.539 14.552C105.867 15.312 106.031 16.128 106.031 17C106.031 17.872 105.867 18.692 105.539 19.46C105.211 20.228 104.759 20.904 104.183 21.488C103.607 22.064 102.935 22.516 102.167 22.844C101.407 23.172 100.591 23.336 99.7191 23.336C98.8711 23.336 98.1351 23.144 97.5111 22.76C96.8871 22.368 96.3751 21.868 95.9751 21.26V29ZM99.6951 13.1C98.9991 13.1 98.3871 13.276 97.8591 13.628C97.3311 13.98 96.9191 14.452 96.6231 15.044C96.3271 15.628 96.1791 16.28 96.1791 17C96.1791 17.72 96.3271 18.376 96.6231 18.968C96.9191 19.56 97.3311 20.032 97.8591 20.384C98.3871 20.736 98.9991 20.912 99.6951 20.912C100.383 20.912 101.015 20.74 101.591 20.396C102.167 20.044 102.627 19.572 102.971 18.98C103.315 18.388 103.487 17.728 103.487 17C103.487 16.288 103.315 15.636 102.971 15.044C102.635 14.452 102.179 13.98 101.603 13.628C101.027 13.276 100.391 13.1 99.6951 13.1Z" fill="#6A26ED"/>
<path d="M119 3L131 15L119 27" stroke="#6A26ED" stroke-width="2" stroke-linecap="round"/>
</svg>
