<svg width="149" height="29" viewBox="0 0 149 29" fill="none" xmlns="http://www.w3.org/2000/svg">
<path d="M1.584 23V6.2H4.284L11.988 18.488V6.2H14.484V23H11.796L4.068 10.712V23H1.584ZM17.7525 23V6.2H28.1805V8.696H20.2485V12.752H26.6325V15.248H20.2485V20.504H28.1805V23H17.7525ZM30.1106 23L36.2666 14.552L30.1826 6.2H33.2666L37.8026 12.44L42.3506 6.2H45.4346L39.3626 14.552L45.5066 23H42.4106L37.8026 16.688L33.2186 23H30.1106ZM60.3668 6.2V8.696H55.0148V23H52.5188V8.696H47.1788V6.2H60.3668ZM74.5296 23.312C73.6096 23.312 72.7256 23.168 71.8776 22.88C71.0296 22.592 70.2896 22.18 69.6576 21.644C69.0256 21.1 68.5736 20.456 68.3016 19.712L70.6416 18.836C70.7776 19.22 71.0376 19.564 71.4216 19.868C71.8136 20.164 72.2776 20.396 72.8136 20.564C73.3576 20.732 73.9296 20.816 74.5296 20.816C75.1696 20.816 75.7696 20.712 76.3296 20.504C76.8976 20.296 77.3536 20.008 77.6976 19.64C78.0496 19.272 78.2256 18.84 78.2256 18.344C78.2256 17.832 78.0416 17.412 77.6736 17.084C77.3136 16.756 76.8496 16.496 76.2816 16.304C75.7216 16.112 75.1376 15.968 74.5296 15.872C73.3536 15.68 72.2976 15.4 71.3616 15.032C70.4336 14.664 69.6976 14.148 69.1536 13.484C68.6176 12.82 68.3496 11.956 68.3496 10.892C68.3496 9.892 68.6336 9.02 69.2016 8.276C69.7776 7.532 70.5336 6.956 71.4696 6.548C72.4136 6.132 73.4336 5.924 74.5296 5.924C75.4336 5.924 76.3056 6.068 77.1456 6.356C77.9936 6.636 78.7376 7.048 79.3776 7.592C80.0256 8.128 80.4896 8.78 80.7696 9.548L78.4056 10.4C78.2696 10.008 78.0096 9.668 77.6256 9.38C77.2416 9.084 76.7776 8.852 76.2336 8.684C75.6976 8.516 75.1296 8.432 74.5296 8.432C73.8896 8.424 73.2896 8.528 72.7296 8.744C72.1776 8.952 71.7256 9.24 71.3736 9.608C71.0216 9.976 70.8456 10.404 70.8456 10.892C70.8456 11.492 71.0096 11.948 71.3376 12.26C71.6656 12.572 72.1056 12.804 72.6576 12.956C73.2176 13.1 73.8416 13.232 74.5296 13.352C75.6336 13.528 76.6536 13.82 77.5896 14.228C78.5336 14.636 79.2896 15.18 79.8576 15.86C80.4336 16.532 80.7216 17.36 80.7216 18.344C80.7216 19.336 80.4336 20.208 79.8576 20.96C79.2896 21.704 78.5336 22.284 77.5896 22.7C76.6536 23.108 75.6336 23.312 74.5296 23.312ZM89.5729 13.496H87.0529L87.0409 23H84.5449L84.5569 13.496H82.6489V11H84.5569L84.5449 7.232H87.0409L87.0529 11H89.5729V13.496ZM96.6497 23.312C95.5457 23.312 94.5377 23.028 93.6257 22.46C92.7217 21.892 91.9977 21.132 91.4537 20.18C90.9177 19.22 90.6497 18.16 90.6497 17C90.6497 16.12 90.8057 15.3 91.1177 14.54C91.4297 13.772 91.8577 13.1 92.4017 12.524C92.9537 11.94 93.5937 11.484 94.3217 11.156C95.0497 10.828 95.8257 10.664 96.6497 10.664C97.5697 10.664 98.4137 10.856 99.1817 11.24C99.9497 11.616 100.606 12.14 101.15 12.812C101.694 13.476 102.094 14.244 102.35 15.116C102.606 15.98 102.682 16.9 102.578 17.876H93.3257C93.4297 18.428 93.6297 18.928 93.9257 19.376C94.2297 19.816 94.6137 20.164 95.0777 20.42C95.5497 20.676 96.0737 20.808 96.6497 20.816C97.2577 20.816 97.8097 20.664 98.3057 20.36C98.8097 20.056 99.2217 19.636 99.5417 19.1L102.074 19.688C101.594 20.752 100.87 21.624 99.9017 22.304C98.9337 22.976 97.8497 23.312 96.6497 23.312ZM93.2417 15.968H100.058C99.9777 15.392 99.7737 14.872 99.4457 14.408C99.1257 13.936 98.7217 13.564 98.2337 13.292C97.7537 13.012 97.2257 12.872 96.6497 12.872C96.0817 12.872 95.5537 13.008 95.0657 13.28C94.5857 13.552 94.1857 13.924 93.8657 14.396C93.5537 14.86 93.3457 15.384 93.2417 15.968ZM107.084 29H104.588V11H107.084V12.764C107.484 12.148 107.996 11.648 108.62 11.264C109.244 10.88 109.98 10.688 110.828 10.688C111.7 10.688 112.516 10.852 113.276 11.18C114.044 11.508 114.716 11.964 115.292 12.548C115.868 13.124 116.32 13.792 116.648 14.552C116.976 15.312 117.14 16.128 117.14 17C117.14 17.872 116.976 18.692 116.648 19.46C116.32 20.228 115.868 20.904 115.292 21.488C114.716 22.064 114.044 22.516 113.276 22.844C112.516 23.172 111.7 23.336 110.828 23.336C109.98 23.336 109.244 23.144 108.62 22.76C107.996 22.368 107.484 21.868 107.084 21.26V29ZM110.804 13.1C110.108 13.1 109.496 13.276 108.968 13.628C108.44 13.98 108.028 14.452 107.732 15.044C107.436 15.628 107.288 16.28 107.288 17C107.288 17.72 107.436 18.376 107.732 18.968C108.028 19.56 108.44 20.032 108.968 20.384C109.496 20.736 110.108 20.912 110.804 20.912C111.492 20.912 112.124 20.74 112.7 20.396C113.276 20.044 113.736 19.572 114.08 18.98C114.424 18.388 114.596 17.728 114.596 17C114.596 16.288 114.424 15.636 114.08 15.044C113.744 14.452 113.288 13.98 112.712 13.628C112.136 13.276 111.5 13.1 110.804 13.1Z" fill="#6A26ED"/>
<path d="M135 2L147 14L135 26" stroke="#6A26ED" stroke-width="2"/>
</svg>
