<svg width="820" height="187" viewBox="0 0 820 187" fill="none" xmlns="http://www.w3.org/2000/svg">
<path d="M0.869177 125.017L35.9034 123.186C36.3916 134.335 38.3041 141.862 41.6407 145.769C47.0118 152.116 56.9401 155.29 71.4258 155.29C83.4701 155.29 92.1778 153.133 97.5489 148.82C102.92 144.507 105.606 139.299 105.606 133.195C105.606 127.906 103.408 123.43 99.0137 119.768C95.9213 117.082 87.417 112.728 73.501 106.706C59.6664 100.684 49.5345 95.679 43.1055 91.6914C36.7578 87.6224 31.753 82.3734 28.0909 75.9443C24.4287 69.5153 22.5977 61.9876 22.5977 53.3613C22.5977 38.306 28.0502 25.8141 38.9551 15.8857C49.8601 5.95736 65.6478 0.993164 86.3184 0.993164C107.314 0.993164 123.55 5.91667 135.024 15.7637C146.58 25.6107 152.928 38.7129 154.067 55.0703L118.789 56.6572C117.894 48.1123 114.801 41.5612 109.512 37.0039C104.222 32.4466 96.4095 30.168 86.0743 30.168C75.9017 30.168 68.6182 31.9583 64.2237 35.5391C59.9105 39.1198 57.7539 43.6364 57.7539 49.0889C57.7539 54.2158 59.7478 58.4476 63.7354 61.7842C67.723 65.2021 76.5528 69.8815 90.2246 75.8223C110.814 84.6927 123.916 91.8949 129.531 97.4287C137.913 105.567 142.105 116.024 142.105 128.801C142.105 144.589 135.838 158.098 123.306 169.328C110.855 180.477 93.4799 186.052 71.1817 186.052C55.8008 186.052 42.4545 183.488 31.1426 178.361C19.9121 173.153 11.9776 165.951 7.3389 156.755C2.70023 147.559 0.543656 136.979 0.869177 125.017Z" fill="black"/>
<path d="M239.883 183H203.018L234.268 33.9521H181.777L188.003 4.04492H328.994L322.769 33.9521H271.011L239.883 183Z" fill="black"/>
<path d="M413.467 143.449H342.544L321.06 183H283.218L384.414 4.04492H425.308L454.36 183H419.448L413.467 143.449ZM408.95 113.664L398.574 41.6426L355.361 113.664H408.95Z" fill="black"/>
<path d="M514.541 183H477.676L515.151 4.04492H594.619C608.291 4.04492 618.911 5.46908 626.48 8.31738C634.129 11.0843 640.273 16.2113 644.912 23.6982C649.632 31.1852 651.992 40.2591 651.992 50.9199C651.992 66.138 647.435 78.7113 638.32 88.6396C629.206 98.4867 615.412 104.59 596.939 106.95C601.659 111.182 606.094 116.757 610.244 123.674C618.464 137.671 627.619 157.447 637.71 183H598.159C594.985 172.909 588.76 157.162 579.482 135.759C574.437 124.203 569.066 116.431 563.369 112.443C559.87 110.083 553.766 108.903 545.059 108.903H530.044L514.541 183ZM535.659 82.0479H555.19C574.966 82.0479 588.068 80.8678 594.497 78.5078C601.008 76.1478 606.094 72.445 609.756 67.3994C613.418 62.3538 615.249 57.0641 615.249 51.5303C615.249 45.0199 612.604 40.137 607.315 36.8818C604.059 34.9287 597.02 33.9521 586.196 33.9521H545.669L535.659 82.0479Z" fill="black"/>
<path d="M730.85 183H693.984L725.234 33.9521H672.744L678.97 4.04492H819.961L813.735 33.9521H761.978L730.85 183Z" fill="black"/>
</svg>
