<svg width="585" height="370" viewBox="0 0 585 370" fill="none" xmlns="http://www.w3.org/2000/svg">
<mask id="path-1-outside-1_295_2" maskUnits="userSpaceOnUse" x="-0.199951" y="0.320068" width="274" height="166" fill="black">
<rect fill="white" x="-0.199951" y="0.320068" width="274" height="166"/>
<path d="M25.4 4.16007V58.8801H18.0401V60.0001H44.3601V58.8801H37V4.16007H39.8801C41.8534 4.16007 43.6134 4.3734 45.16 4.80007C46.7067 5.1734 48.0934 5.86673 49.3201 6.88007C50.5467 7.84007 51.6401 9.20007 52.6 10.9601C53.56 12.7201 54.4401 14.9601 55.2401 17.6801H56.28V3.04007H6.12005V17.6801H7.16005C7.96005 14.9601 8.84005 12.7201 9.80005 10.9601C10.76 9.20007 11.8534 7.84007 13.08 6.88007C14.3067 5.86673 15.6934 5.1734 17.24 4.80007C18.7867 4.3734 20.5467 4.16007 22.5201 4.16007H25.4Z"/>
<path d="M66.3663 58.8801V60.0001H86.4463V58.8801H81.4063V41.7601C81.4063 39.3067 81.673 37.1734 82.2063 35.3601C82.7396 33.5467 83.433 32.0267 84.2863 30.8001C85.193 29.5734 86.233 28.6667 87.4063 28.0801C88.5796 27.4401 89.8063 27.1201 91.0863 27.1201C92.633 27.1201 93.8596 27.6534 94.7663 28.7201C95.673 29.7334 96.1263 31.3601 96.1263 33.6001V58.8801H91.1663V60.0001H111.246V58.8801H105.886V36.3201C105.886 32.8001 104.9 30.0267 102.926 28.0001C101.006 25.9734 98.2863 24.9601 94.7663 24.9601C92.3663 24.9601 90.3663 25.3067 88.7663 26.0001C87.2196 26.6934 85.9396 27.5201 84.9263 28.4801C83.913 29.3867 83.1396 30.3201 82.6063 31.2801C82.1263 32.1867 81.7796 32.8801 81.5663 33.3601H81.4063V2.32007H66.3663V3.44007H71.6463V58.8801H66.3663Z"/>
<path d="M125.237 8.48007C125.237 10.0267 125.797 11.3601 126.917 12.4801C128.037 13.6001 129.37 14.1601 130.917 14.1601C132.464 14.1601 133.797 13.6001 134.917 12.4801C136.037 11.3601 136.597 10.0267 136.597 8.48007C136.597 6.9334 136.037 5.60007 134.917 4.48007C133.797 3.36007 132.464 2.80007 130.917 2.80007C129.37 2.80007 128.037 3.36007 126.917 4.48007C125.797 5.60007 125.237 6.9334 125.237 8.48007ZM120.677 25.6801V26.8001H126.037V58.8801H120.677V60.0001H141.157V58.8801H135.797V25.6801H120.677Z"/>
<path d="M150.551 48.4001V60.0001H151.671C151.831 59.5734 151.991 59.2801 152.151 59.1201C152.365 58.9601 152.685 58.8801 153.111 58.8801C153.591 58.8801 154.258 58.9867 155.111 59.2001C155.965 59.4134 156.898 59.6801 157.911 60.0001C158.978 60.2667 160.071 60.5067 161.191 60.7201C162.311 60.9334 163.351 61.0401 164.311 61.0401C166.071 61.0401 167.778 60.7734 169.431 60.2401C171.085 59.7067 172.525 58.9601 173.751 58.0001C175.031 56.9867 176.045 55.7867 176.791 54.4001C177.591 52.9601 177.991 51.3601 177.991 49.6001C177.991 47.0401 177.245 44.9334 175.751 43.2801C174.258 41.6267 172.071 40.2934 169.191 39.2801L162.391 36.9601C161.058 36.4801 159.991 36.0001 159.191 35.5201C158.391 34.9867 157.805 34.4801 157.431 34.0001C157.058 33.4667 156.818 32.9601 156.711 32.4801C156.605 32.0001 156.551 31.5734 156.551 31.2001C156.551 29.3867 157.271 28.0267 158.711 27.1201C160.205 26.1601 161.831 25.6801 163.591 25.6801C165.245 25.6801 166.631 25.9467 167.751 26.4801C168.871 26.9601 169.805 27.6534 170.551 28.5601C171.351 29.4134 172.018 30.4267 172.551 31.6001C173.138 32.7734 173.698 34.0001 174.231 35.2801H175.271V25.5201H174.151C174.045 25.7867 173.911 26.0267 173.751 26.2401C173.591 26.4534 173.218 26.5601 172.631 26.5601C172.311 26.5601 171.858 26.4534 171.271 26.2401C170.738 26.0267 170.098 25.8134 169.351 25.6001C168.658 25.3334 167.858 25.0934 166.951 24.8801C166.098 24.6667 165.165 24.5601 164.151 24.5601C162.231 24.5601 160.445 24.8801 158.791 25.5201C157.191 26.1067 155.805 26.9334 154.631 28.0001C153.511 29.0134 152.631 30.2134 151.991 31.6001C151.351 32.9867 151.031 34.4534 151.031 36.0001C151.031 37.4401 151.271 38.6934 151.751 39.7601C152.231 40.7734 152.818 41.6534 153.511 42.4001C154.258 43.1467 155.058 43.7601 155.911 44.2401C156.765 44.6667 157.565 45.0134 158.311 45.2801L164.791 47.6801C166.231 48.2134 167.351 48.7467 168.151 49.2801C169.005 49.7601 169.645 50.2667 170.071 50.8001C170.498 51.3334 170.765 51.8667 170.871 52.4001C171.031 52.8801 171.111 53.3601 171.111 53.8401C171.111 55.3867 170.818 56.5867 170.231 57.4401C169.698 58.2401 169.031 58.8534 168.231 59.2801C167.485 59.6534 166.711 59.8667 165.911 59.9201C165.111 59.9734 164.471 60.0001 163.991 60.0001C162.125 60.0001 160.551 59.6801 159.271 59.0401C157.991 58.3467 156.898 57.4667 155.991 56.4001C155.085 55.3334 154.285 54.1067 153.591 52.7201C152.951 51.3334 152.311 49.8934 151.671 48.4001H150.551Z"/>
<path d="M218.799 8.48007C218.799 10.0267 219.359 11.3601 220.479 12.4801C221.599 13.6001 222.933 14.1601 224.479 14.1601C226.026 14.1601 227.359 13.6001 228.479 12.4801C229.599 11.3601 230.159 10.0267 230.159 8.48007C230.159 6.9334 229.599 5.60007 228.479 4.48007C227.359 3.36007 226.026 2.80007 224.479 2.80007C222.933 2.80007 221.599 3.36007 220.479 4.48007C219.359 5.60007 218.799 6.9334 218.799 8.48007ZM214.239 25.6801V26.8001H219.599V58.8801H214.239V60.0001H234.719V58.8801H229.359V25.6801H214.239Z"/>
<path d="M244.114 48.4001V60.0001H245.234C245.394 59.5734 245.554 59.2801 245.714 59.1201C245.927 58.9601 246.247 58.8801 246.674 58.8801C247.154 58.8801 247.82 58.9867 248.674 59.2001C249.527 59.4134 250.46 59.6801 251.474 60.0001C252.54 60.2667 253.634 60.5067 254.754 60.7201C255.874 60.9334 256.914 61.0401 257.874 61.0401C259.634 61.0401 261.34 60.7734 262.994 60.2401C264.647 59.7067 266.087 58.9601 267.314 58.0001C268.594 56.9867 269.607 55.7867 270.354 54.4001C271.154 52.9601 271.554 51.3601 271.554 49.6001C271.554 47.0401 270.807 44.9334 269.314 43.2801C267.82 41.6267 265.634 40.2934 262.754 39.2801L255.954 36.9601C254.62 36.4801 253.554 36.0001 252.754 35.5201C251.954 34.9867 251.367 34.4801 250.994 34.0001C250.62 33.4667 250.38 32.9601 250.274 32.4801C250.167 32.0001 250.114 31.5734 250.114 31.2001C250.114 29.3867 250.834 28.0267 252.274 27.1201C253.767 26.1601 255.394 25.6801 257.154 25.6801C258.807 25.6801 260.194 25.9467 261.314 26.4801C262.434 26.9601 263.367 27.6534 264.114 28.5601C264.914 29.4134 265.58 30.4267 266.114 31.6001C266.7 32.7734 267.26 34.0001 267.794 35.2801H268.834V25.5201H267.714C267.607 25.7867 267.474 26.0267 267.314 26.2401C267.154 26.4534 266.78 26.5601 266.194 26.5601C265.874 26.5601 265.42 26.4534 264.834 26.2401C264.3 26.0267 263.66 25.8134 262.914 25.6001C262.22 25.3334 261.42 25.0934 260.514 24.8801C259.66 24.6667 258.727 24.5601 257.714 24.5601C255.794 24.5601 254.007 24.8801 252.354 25.5201C250.754 26.1067 249.367 26.9334 248.194 28.0001C247.074 29.0134 246.194 30.2134 245.554 31.6001C244.914 32.9867 244.594 34.4534 244.594 36.0001C244.594 37.4401 244.834 38.6934 245.314 39.7601C245.794 40.7734 246.38 41.6534 247.074 42.4001C247.82 43.1467 248.62 43.7601 249.474 44.2401C250.327 44.6667 251.127 45.0134 251.874 45.2801L258.354 47.6801C259.794 48.2134 260.914 48.7467 261.714 49.2801C262.567 49.7601 263.207 50.2667 263.634 50.8001C264.06 51.3334 264.327 51.8667 264.434 52.4001C264.594 52.8801 264.674 53.3601 264.674 53.8401C264.674 55.3867 264.38 56.5867 263.794 57.4401C263.26 58.2401 262.594 58.8534 261.794 59.2801C261.047 59.6534 260.274 59.8667 259.474 59.9201C258.674 59.9734 258.034 60.0001 257.554 60.0001C255.687 60.0001 254.114 59.6801 252.834 59.0401C251.554 58.3467 250.46 57.4667 249.554 56.4001C248.647 55.3334 247.847 54.1067 247.154 52.7201C246.514 51.3334 245.874 49.8934 245.234 48.4001H244.114Z"/>
<path d="M1.80005 106.04V107.16H8.04005L26.6 139.56V161.88H19.24V163H45.6401V161.88H38.2001V136.52L53.64 107.16H60.6001V106.04H45.3201V107.16H52.2801L37.5601 135.08L21.24 107.16H27.56V106.04H1.80005Z"/>
<path d="M85.5682 163C83.4882 163 81.8615 162.52 80.6882 161.56C79.5148 160.547 78.6348 159.24 78.0482 157.64C77.5148 156.04 77.1682 154.2 77.0082 152.12C76.9015 150.04 76.8482 147.933 76.8482 145.8C76.8482 143.667 76.9015 141.587 77.0082 139.56C77.1682 137.48 77.5148 135.64 78.0482 134.04C78.6348 132.44 79.5148 131.16 80.6882 130.2C81.8615 129.187 83.4882 128.68 85.5682 128.68C87.6482 128.68 89.2748 129.187 90.4482 130.2C91.6215 131.16 92.4748 132.44 93.0082 134.04C93.5948 135.64 93.9415 137.48 94.0482 139.56C94.2082 141.587 94.2882 143.667 94.2882 145.8C94.2882 147.933 94.2082 150.04 94.0482 152.12C93.9415 154.2 93.5948 156.04 93.0082 157.64C92.4748 159.24 91.6215 160.547 90.4482 161.56C89.2748 162.52 87.6482 163 85.5682 163ZM85.5682 127.56C82.7948 127.56 80.2082 128.067 77.8082 129.08C75.4615 130.04 73.4082 131.347 71.6482 133C69.8882 134.653 68.5015 136.6 67.4882 138.84C66.5282 141.027 66.0482 143.347 66.0482 145.8C66.0482 148.307 66.5282 150.68 67.4882 152.92C68.5015 155.107 69.8882 157.027 71.6482 158.68C73.4082 160.333 75.4615 161.64 77.8082 162.6C80.2082 163.56 82.7948 164.04 85.5682 164.04C88.3415 164.04 90.9015 163.56 93.2482 162.6C95.6482 161.64 97.7282 160.333 99.4882 158.68C101.248 157.027 102.608 155.107 103.568 152.92C104.582 150.68 105.088 148.307 105.088 145.8C105.088 143.347 104.582 141.027 103.568 138.84C102.608 136.6 101.248 134.653 99.4882 133C97.7282 131.347 95.6482 130.04 93.2482 129.08C90.9015 128.067 88.3415 127.56 85.5682 127.56Z"/>
<path d="M113.941 128.68V129.8H119.301V152.92C119.301 156.813 120.288 159.587 122.261 161.24C124.235 162.84 127.088 163.64 130.821 163.64C131.995 163.64 133.195 163.48 134.421 163.16C135.648 162.893 136.795 162.467 137.861 161.88C138.981 161.24 139.968 160.493 140.821 159.64C141.675 158.733 142.315 157.693 142.741 156.52H142.901V163H157.781V161.88H152.501V128.68H137.461V129.8H142.741V150.44C142.741 151.88 142.528 153.267 142.101 154.6C141.728 155.933 141.168 157.107 140.421 158.12C139.728 159.08 138.875 159.853 137.861 160.44C136.848 161.027 135.728 161.32 134.501 161.32C132.475 161.32 131.061 160.627 130.261 159.24C129.461 157.8 129.061 156.067 129.061 154.04V128.68H113.941Z"/>
<path d="M167.968 128.68V129.8H173.168V161.88H167.968V163H189.248V161.88H182.928V141.4C182.928 139.693 183.168 138.173 183.648 136.84C184.181 135.453 184.794 134.28 185.488 133.32C186.181 132.36 186.928 131.64 187.728 131.16C188.528 130.627 189.194 130.36 189.728 130.36C190.208 130.36 190.554 130.467 190.768 130.68C191.034 130.84 191.221 131.053 191.328 131.32C191.434 131.533 191.488 131.747 191.488 131.96C191.541 132.173 191.568 132.28 191.568 132.28C191.568 132.333 191.541 132.547 191.488 132.92C191.434 133.293 191.354 133.72 191.248 134.2C191.194 134.627 191.141 135.053 191.088 135.48C191.034 135.853 191.008 136.12 191.008 136.28C191.008 137.667 191.514 138.627 192.528 139.16C193.541 139.64 194.661 139.88 195.888 139.88C197.594 139.88 198.821 139.427 199.568 138.52C200.368 137.613 200.768 136.36 200.768 134.76C200.768 132.627 200.074 130.973 198.688 129.8C197.301 128.573 195.488 127.96 193.248 127.96C190.581 127.96 188.421 128.707 186.768 130.2C185.168 131.64 183.888 133.373 182.928 135.4H182.768V128.68H167.968Z"/>
</mask>
<path d="M25.4 4.16007V58.8801H18.0401V60.0001H44.3601V58.8801H37V4.16007H39.8801C41.8534 4.16007 43.6134 4.3734 45.16 4.80007C46.7067 5.1734 48.0934 5.86673 49.3201 6.88007C50.5467 7.84007 51.6401 9.20007 52.6 10.9601C53.56 12.7201 54.4401 14.9601 55.2401 17.6801H56.28V3.04007H6.12005V17.6801H7.16005C7.96005 14.9601 8.84005 12.7201 9.80005 10.9601C10.76 9.20007 11.8534 7.84007 13.08 6.88007C14.3067 5.86673 15.6934 5.1734 17.24 4.80007C18.7867 4.3734 20.5467 4.16007 22.5201 4.16007H25.4Z" fill="black"/>
<path d="M66.3663 58.8801V60.0001H86.4463V58.8801H81.4063V41.7601C81.4063 39.3067 81.673 37.1734 82.2063 35.3601C82.7396 33.5467 83.433 32.0267 84.2863 30.8001C85.193 29.5734 86.233 28.6667 87.4063 28.0801C88.5796 27.4401 89.8063 27.1201 91.0863 27.1201C92.633 27.1201 93.8596 27.6534 94.7663 28.7201C95.673 29.7334 96.1263 31.3601 96.1263 33.6001V58.8801H91.1663V60.0001H111.246V58.8801H105.886V36.3201C105.886 32.8001 104.9 30.0267 102.926 28.0001C101.006 25.9734 98.2863 24.9601 94.7663 24.9601C92.3663 24.9601 90.3663 25.3067 88.7663 26.0001C87.2196 26.6934 85.9396 27.5201 84.9263 28.4801C83.913 29.3867 83.1396 30.3201 82.6063 31.2801C82.1263 32.1867 81.7796 32.8801 81.5663 33.3601H81.4063V2.32007H66.3663V3.44007H71.6463V58.8801H66.3663Z" fill="black"/>
<path d="M125.237 8.48007C125.237 10.0267 125.797 11.3601 126.917 12.4801C128.037 13.6001 129.37 14.1601 130.917 14.1601C132.464 14.1601 133.797 13.6001 134.917 12.4801C136.037 11.3601 136.597 10.0267 136.597 8.48007C136.597 6.9334 136.037 5.60007 134.917 4.48007C133.797 3.36007 132.464 2.80007 130.917 2.80007C129.37 2.80007 128.037 3.36007 126.917 4.48007C125.797 5.60007 125.237 6.9334 125.237 8.48007ZM120.677 25.6801V26.8001H126.037V58.8801H120.677V60.0001H141.157V58.8801H135.797V25.6801H120.677Z" fill="black"/>
<path d="M150.551 48.4001V60.0001H151.671C151.831 59.5734 151.991 59.2801 152.151 59.1201C152.365 58.9601 152.685 58.8801 153.111 58.8801C153.591 58.8801 154.258 58.9867 155.111 59.2001C155.965 59.4134 156.898 59.6801 157.911 60.0001C158.978 60.2667 160.071 60.5067 161.191 60.7201C162.311 60.9334 163.351 61.0401 164.311 61.0401C166.071 61.0401 167.778 60.7734 169.431 60.2401C171.085 59.7067 172.525 58.9601 173.751 58.0001C175.031 56.9867 176.045 55.7867 176.791 54.4001C177.591 52.9601 177.991 51.3601 177.991 49.6001C177.991 47.0401 177.245 44.9334 175.751 43.2801C174.258 41.6267 172.071 40.2934 169.191 39.2801L162.391 36.9601C161.058 36.4801 159.991 36.0001 159.191 35.5201C158.391 34.9867 157.805 34.4801 157.431 34.0001C157.058 33.4667 156.818 32.9601 156.711 32.4801C156.605 32.0001 156.551 31.5734 156.551 31.2001C156.551 29.3867 157.271 28.0267 158.711 27.1201C160.205 26.1601 161.831 25.6801 163.591 25.6801C165.245 25.6801 166.631 25.9467 167.751 26.4801C168.871 26.9601 169.805 27.6534 170.551 28.5601C171.351 29.4134 172.018 30.4267 172.551 31.6001C173.138 32.7734 173.698 34.0001 174.231 35.2801H175.271V25.5201H174.151C174.045 25.7867 173.911 26.0267 173.751 26.2401C173.591 26.4534 173.218 26.5601 172.631 26.5601C172.311 26.5601 171.858 26.4534 171.271 26.2401C170.738 26.0267 170.098 25.8134 169.351 25.6001C168.658 25.3334 167.858 25.0934 166.951 24.8801C166.098 24.6667 165.165 24.5601 164.151 24.5601C162.231 24.5601 160.445 24.8801 158.791 25.5201C157.191 26.1067 155.805 26.9334 154.631 28.0001C153.511 29.0134 152.631 30.2134 151.991 31.6001C151.351 32.9867 151.031 34.4534 151.031 36.0001C151.031 37.4401 151.271 38.6934 151.751 39.7601C152.231 40.7734 152.818 41.6534 153.511 42.4001C154.258 43.1467 155.058 43.7601 155.911 44.2401C156.765 44.6667 157.565 45.0134 158.311 45.2801L164.791 47.6801C166.231 48.2134 167.351 48.7467 168.151 49.2801C169.005 49.7601 169.645 50.2667 170.071 50.8001C170.498 51.3334 170.765 51.8667 170.871 52.4001C171.031 52.8801 171.111 53.3601 171.111 53.8401C171.111 55.3867 170.818 56.5867 170.231 57.4401C169.698 58.2401 169.031 58.8534 168.231 59.2801C167.485 59.6534 166.711 59.8667 165.911 59.9201C165.111 59.9734 164.471 60.0001 163.991 60.0001C162.125 60.0001 160.551 59.6801 159.271 59.0401C157.991 58.3467 156.898 57.4667 155.991 56.4001C155.085 55.3334 154.285 54.1067 153.591 52.7201C152.951 51.3334 152.311 49.8934 151.671 48.4001H150.551Z" fill="black"/>
<path d="M218.799 8.48007C218.799 10.0267 219.359 11.3601 220.479 12.4801C221.599 13.6001 222.933 14.1601 224.479 14.1601C226.026 14.1601 227.359 13.6001 228.479 12.4801C229.599 11.3601 230.159 10.0267 230.159 8.48007C230.159 6.9334 229.599 5.60007 228.479 4.48007C227.359 3.36007 226.026 2.80007 224.479 2.80007C222.933 2.80007 221.599 3.36007 220.479 4.48007C219.359 5.60007 218.799 6.9334 218.799 8.48007ZM214.239 25.6801V26.8001H219.599V58.8801H214.239V60.0001H234.719V58.8801H229.359V25.6801H214.239Z" fill="black"/>
<path d="M244.114 48.4001V60.0001H245.234C245.394 59.5734 245.554 59.2801 245.714 59.1201C245.927 58.9601 246.247 58.8801 246.674 58.8801C247.154 58.8801 247.82 58.9867 248.674 59.2001C249.527 59.4134 250.46 59.6801 251.474 60.0001C252.54 60.2667 253.634 60.5067 254.754 60.7201C255.874 60.9334 256.914 61.0401 257.874 61.0401C259.634 61.0401 261.34 60.7734 262.994 60.2401C264.647 59.7067 266.087 58.9601 267.314 58.0001C268.594 56.9867 269.607 55.7867 270.354 54.4001C271.154 52.9601 271.554 51.3601 271.554 49.6001C271.554 47.0401 270.807 44.9334 269.314 43.2801C267.82 41.6267 265.634 40.2934 262.754 39.2801L255.954 36.9601C254.62 36.4801 253.554 36.0001 252.754 35.5201C251.954 34.9867 251.367 34.4801 250.994 34.0001C250.62 33.4667 250.38 32.9601 250.274 32.4801C250.167 32.0001 250.114 31.5734 250.114 31.2001C250.114 29.3867 250.834 28.0267 252.274 27.1201C253.767 26.1601 255.394 25.6801 257.154 25.6801C258.807 25.6801 260.194 25.9467 261.314 26.4801C262.434 26.9601 263.367 27.6534 264.114 28.5601C264.914 29.4134 265.58 30.4267 266.114 31.6001C266.7 32.7734 267.26 34.0001 267.794 35.2801H268.834V25.5201H267.714C267.607 25.7867 267.474 26.0267 267.314 26.2401C267.154 26.4534 266.78 26.5601 266.194 26.5601C265.874 26.5601 265.42 26.4534 264.834 26.2401C264.3 26.0267 263.66 25.8134 262.914 25.6001C262.22 25.3334 261.42 25.0934 260.514 24.8801C259.66 24.6667 258.727 24.5601 257.714 24.5601C255.794 24.5601 254.007 24.8801 252.354 25.5201C250.754 26.1067 249.367 26.9334 248.194 28.0001C247.074 29.0134 246.194 30.2134 245.554 31.6001C244.914 32.9867 244.594 34.4534 244.594 36.0001C244.594 37.4401 244.834 38.6934 245.314 39.7601C245.794 40.7734 246.38 41.6534 247.074 42.4001C247.82 43.1467 248.62 43.7601 249.474 44.2401C250.327 44.6667 251.127 45.0134 251.874 45.2801L258.354 47.6801C259.794 48.2134 260.914 48.7467 261.714 49.2801C262.567 49.7601 263.207 50.2667 263.634 50.8001C264.06 51.3334 264.327 51.8667 264.434 52.4001C264.594 52.8801 264.674 53.3601 264.674 53.8401C264.674 55.3867 264.38 56.5867 263.794 57.4401C263.26 58.2401 262.594 58.8534 261.794 59.2801C261.047 59.6534 260.274 59.8667 259.474 59.9201C258.674 59.9734 258.034 60.0001 257.554 60.0001C255.687 60.0001 254.114 59.6801 252.834 59.0401C251.554 58.3467 250.46 57.4667 249.554 56.4001C248.647 55.3334 247.847 54.1067 247.154 52.7201C246.514 51.3334 245.874 49.8934 245.234 48.4001H244.114Z" fill="black"/>
<path d="M1.80005 106.04V107.16H8.04005L26.6 139.56V161.88H19.24V163H45.6401V161.88H38.2001V136.52L53.64 107.16H60.6001V106.04H45.3201V107.16H52.2801L37.5601 135.08L21.24 107.16H27.56V106.04H1.80005Z" fill="black"/>
<path d="M85.5682 163C83.4882 163 81.8615 162.52 80.6882 161.56C79.5148 160.547 78.6348 159.24 78.0482 157.64C77.5148 156.04 77.1682 154.2 77.0082 152.12C76.9015 150.04 76.8482 147.933 76.8482 145.8C76.8482 143.667 76.9015 141.587 77.0082 139.56C77.1682 137.48 77.5148 135.64 78.0482 134.04C78.6348 132.44 79.5148 131.16 80.6882 130.2C81.8615 129.187 83.4882 128.68 85.5682 128.68C87.6482 128.68 89.2748 129.187 90.4482 130.2C91.6215 131.16 92.4748 132.44 93.0082 134.04C93.5948 135.64 93.9415 137.48 94.0482 139.56C94.2082 141.587 94.2882 143.667 94.2882 145.8C94.2882 147.933 94.2082 150.04 94.0482 152.12C93.9415 154.2 93.5948 156.04 93.0082 157.64C92.4748 159.24 91.6215 160.547 90.4482 161.56C89.2748 162.52 87.6482 163 85.5682 163ZM85.5682 127.56C82.7948 127.56 80.2082 128.067 77.8082 129.08C75.4615 130.04 73.4082 131.347 71.6482 133C69.8882 134.653 68.5015 136.6 67.4882 138.84C66.5282 141.027 66.0482 143.347 66.0482 145.8C66.0482 148.307 66.5282 150.68 67.4882 152.92C68.5015 155.107 69.8882 157.027 71.6482 158.68C73.4082 160.333 75.4615 161.64 77.8082 162.6C80.2082 163.56 82.7948 164.04 85.5682 164.04C88.3415 164.04 90.9015 163.56 93.2482 162.6C95.6482 161.64 97.7282 160.333 99.4882 158.68C101.248 157.027 102.608 155.107 103.568 152.92C104.582 150.68 105.088 148.307 105.088 145.8C105.088 143.347 104.582 141.027 103.568 138.84C102.608 136.6 101.248 134.653 99.4882 133C97.7282 131.347 95.6482 130.04 93.2482 129.08C90.9015 128.067 88.3415 127.56 85.5682 127.56Z" fill="black"/>
<path d="M113.941 128.68V129.8H119.301V152.92C119.301 156.813 120.288 159.587 122.261 161.24C124.235 162.84 127.088 163.64 130.821 163.64C131.995 163.64 133.195 163.48 134.421 163.16C135.648 162.893 136.795 162.467 137.861 161.88C138.981 161.24 139.968 160.493 140.821 159.64C141.675 158.733 142.315 157.693 142.741 156.52H142.901V163H157.781V161.88H152.501V128.68H137.461V129.8H142.741V150.44C142.741 151.88 142.528 153.267 142.101 154.6C141.728 155.933 141.168 157.107 140.421 158.12C139.728 159.08 138.875 159.853 137.861 160.44C136.848 161.027 135.728 161.32 134.501 161.32C132.475 161.32 131.061 160.627 130.261 159.24C129.461 157.8 129.061 156.067 129.061 154.04V128.68H113.941Z" fill="black"/>
<path d="M167.968 128.68V129.8H173.168V161.88H167.968V163H189.248V161.88H182.928V141.4C182.928 139.693 183.168 138.173 183.648 136.84C184.181 135.453 184.794 134.28 185.488 133.32C186.181 132.36 186.928 131.64 187.728 131.16C188.528 130.627 189.194 130.36 189.728 130.36C190.208 130.36 190.554 130.467 190.768 130.68C191.034 130.84 191.221 131.053 191.328 131.32C191.434 131.533 191.488 131.747 191.488 131.96C191.541 132.173 191.568 132.28 191.568 132.28C191.568 132.333 191.541 132.547 191.488 132.92C191.434 133.293 191.354 133.72 191.248 134.2C191.194 134.627 191.141 135.053 191.088 135.48C191.034 135.853 191.008 136.12 191.008 136.28C191.008 137.667 191.514 138.627 192.528 139.16C193.541 139.64 194.661 139.88 195.888 139.88C197.594 139.88 198.821 139.427 199.568 138.52C200.368 137.613 200.768 136.36 200.768 134.76C200.768 132.627 200.074 130.973 198.688 129.8C197.301 128.573 195.488 127.96 193.248 127.96C190.581 127.96 188.421 128.707 186.768 130.2C185.168 131.64 183.888 133.373 182.928 135.4H182.768V128.68H167.968Z" fill="black"/>
<path d="M25.4 4.16007V58.8801H18.0401V60.0001H44.3601V58.8801H37V4.16007H39.8801C41.8534 4.16007 43.6134 4.3734 45.16 4.80007C46.7067 5.1734 48.0934 5.86673 49.3201 6.88007C50.5467 7.84007 51.6401 9.20007 52.6 10.9601C53.56 12.7201 54.4401 14.9601 55.2401 17.6801H56.28V3.04007H6.12005V17.6801H7.16005C7.96005 14.9601 8.84005 12.7201 9.80005 10.9601C10.76 9.20007 11.8534 7.84007 13.08 6.88007C14.3067 5.86673 15.6934 5.1734 17.24 4.80007C18.7867 4.3734 20.5467 4.16007 22.5201 4.16007H25.4Z" stroke="black" stroke-width="3" mask="url(#path-1-outside-1_295_2)"/>
<path d="M66.3663 58.8801V60.0001H86.4463V58.8801H81.4063V41.7601C81.4063 39.3067 81.673 37.1734 82.2063 35.3601C82.7396 33.5467 83.433 32.0267 84.2863 30.8001C85.193 29.5734 86.233 28.6667 87.4063 28.0801C88.5796 27.4401 89.8063 27.1201 91.0863 27.1201C92.633 27.1201 93.8596 27.6534 94.7663 28.7201C95.673 29.7334 96.1263 31.3601 96.1263 33.6001V58.8801H91.1663V60.0001H111.246V58.8801H105.886V36.3201C105.886 32.8001 104.9 30.0267 102.926 28.0001C101.006 25.9734 98.2863 24.9601 94.7663 24.9601C92.3663 24.9601 90.3663 25.3067 88.7663 26.0001C87.2196 26.6934 85.9396 27.5201 84.9263 28.4801C83.913 29.3867 83.1396 30.3201 82.6063 31.2801C82.1263 32.1867 81.7796 32.8801 81.5663 33.3601H81.4063V2.32007H66.3663V3.44007H71.6463V58.8801H66.3663Z" stroke="black" stroke-width="3" mask="url(#path-1-outside-1_295_2)"/>
<path d="M125.237 8.48007C125.237 10.0267 125.797 11.3601 126.917 12.4801C128.037 13.6001 129.37 14.1601 130.917 14.1601C132.464 14.1601 133.797 13.6001 134.917 12.4801C136.037 11.3601 136.597 10.0267 136.597 8.48007C136.597 6.9334 136.037 5.60007 134.917 4.48007C133.797 3.36007 132.464 2.80007 130.917 2.80007C129.37 2.80007 128.037 3.36007 126.917 4.48007C125.797 5.60007 125.237 6.9334 125.237 8.48007ZM120.677 25.6801V26.8001H126.037V58.8801H120.677V60.0001H141.157V58.8801H135.797V25.6801H120.677Z" stroke="black" stroke-width="3" mask="url(#path-1-outside-1_295_2)"/>
<path d="M150.551 48.4001V60.0001H151.671C151.831 59.5734 151.991 59.2801 152.151 59.1201C152.365 58.9601 152.685 58.8801 153.111 58.8801C153.591 58.8801 154.258 58.9867 155.111 59.2001C155.965 59.4134 156.898 59.6801 157.911 60.0001C158.978 60.2667 160.071 60.5067 161.191 60.7201C162.311 60.9334 163.351 61.0401 164.311 61.0401C166.071 61.0401 167.778 60.7734 169.431 60.2401C171.085 59.7067 172.525 58.9601 173.751 58.0001C175.031 56.9867 176.045 55.7867 176.791 54.4001C177.591 52.9601 177.991 51.3601 177.991 49.6001C177.991 47.0401 177.245 44.9334 175.751 43.2801C174.258 41.6267 172.071 40.2934 169.191 39.2801L162.391 36.9601C161.058 36.4801 159.991 36.0001 159.191 35.5201C158.391 34.9867 157.805 34.4801 157.431 34.0001C157.058 33.4667 156.818 32.9601 156.711 32.4801C156.605 32.0001 156.551 31.5734 156.551 31.2001C156.551 29.3867 157.271 28.0267 158.711 27.1201C160.205 26.1601 161.831 25.6801 163.591 25.6801C165.245 25.6801 166.631 25.9467 167.751 26.4801C168.871 26.9601 169.805 27.6534 170.551 28.5601C171.351 29.4134 172.018 30.4267 172.551 31.6001C173.138 32.7734 173.698 34.0001 174.231 35.2801H175.271V25.5201H174.151C174.045 25.7867 173.911 26.0267 173.751 26.2401C173.591 26.4534 173.218 26.5601 172.631 26.5601C172.311 26.5601 171.858 26.4534 171.271 26.2401C170.738 26.0267 170.098 25.8134 169.351 25.6001C168.658 25.3334 167.858 25.0934 166.951 24.8801C166.098 24.6667 165.165 24.5601 164.151 24.5601C162.231 24.5601 160.445 24.8801 158.791 25.5201C157.191 26.1067 155.805 26.9334 154.631 28.0001C153.511 29.0134 152.631 30.2134 151.991 31.6001C151.351 32.9867 151.031 34.4534 151.031 36.0001C151.031 37.4401 151.271 38.6934 151.751 39.7601C152.231 40.7734 152.818 41.6534 153.511 42.4001C154.258 43.1467 155.058 43.7601 155.911 44.2401C156.765 44.6667 157.565 45.0134 158.311 45.2801L164.791 47.6801C166.231 48.2134 167.351 48.7467 168.151 49.2801C169.005 49.7601 169.645 50.2667 170.071 50.8001C170.498 51.3334 170.765 51.8667 170.871 52.4001C171.031 52.8801 171.111 53.3601 171.111 53.8401C171.111 55.3867 170.818 56.5867 170.231 57.4401C169.698 58.2401 169.031 58.8534 168.231 59.2801C167.485 59.6534 166.711 59.8667 165.911 59.9201C165.111 59.9734 164.471 60.0001 163.991 60.0001C162.125 60.0001 160.551 59.6801 159.271 59.0401C157.991 58.3467 156.898 57.4667 155.991 56.4001C155.085 55.3334 154.285 54.1067 153.591 52.7201C152.951 51.3334 152.311 49.8934 151.671 48.4001H150.551Z" stroke="black" stroke-width="3" mask="url(#path-1-outside-1_295_2)"/>
<path d="M218.799 8.48007C218.799 10.0267 219.359 11.3601 220.479 12.4801C221.599 13.6001 222.933 14.1601 224.479 14.1601C226.026 14.1601 227.359 13.6001 228.479 12.4801C229.599 11.3601 230.159 10.0267 230.159 8.48007C230.159 6.9334 229.599 5.60007 228.479 4.48007C227.359 3.36007 226.026 2.80007 224.479 2.80007C222.933 2.80007 221.599 3.36007 220.479 4.48007C219.359 5.60007 218.799 6.9334 218.799 8.48007ZM214.239 25.6801V26.8001H219.599V58.8801H214.239V60.0001H234.719V58.8801H229.359V25.6801H214.239Z" stroke="black" stroke-width="3" mask="url(#path-1-outside-1_295_2)"/>
<path d="M244.114 48.4001V60.0001H245.234C245.394 59.5734 245.554 59.2801 245.714 59.1201C245.927 58.9601 246.247 58.8801 246.674 58.8801C247.154 58.8801 247.82 58.9867 248.674 59.2001C249.527 59.4134 250.46 59.6801 251.474 60.0001C252.54 60.2667 253.634 60.5067 254.754 60.7201C255.874 60.9334 256.914 61.0401 257.874 61.0401C259.634 61.0401 261.34 60.7734 262.994 60.2401C264.647 59.7067 266.087 58.9601 267.314 58.0001C268.594 56.9867 269.607 55.7867 270.354 54.4001C271.154 52.9601 271.554 51.3601 271.554 49.6001C271.554 47.0401 270.807 44.9334 269.314 43.2801C267.82 41.6267 265.634 40.2934 262.754 39.2801L255.954 36.9601C254.62 36.4801 253.554 36.0001 252.754 35.5201C251.954 34.9867 251.367 34.4801 250.994 34.0001C250.62 33.4667 250.38 32.9601 250.274 32.4801C250.167 32.0001 250.114 31.5734 250.114 31.2001C250.114 29.3867 250.834 28.0267 252.274 27.1201C253.767 26.1601 255.394 25.6801 257.154 25.6801C258.807 25.6801 260.194 25.9467 261.314 26.4801C262.434 26.9601 263.367 27.6534 264.114 28.5601C264.914 29.4134 265.58 30.4267 266.114 31.6001C266.7 32.7734 267.26 34.0001 267.794 35.2801H268.834V25.5201H267.714C267.607 25.7867 267.474 26.0267 267.314 26.2401C267.154 26.4534 266.78 26.5601 266.194 26.5601C265.874 26.5601 265.42 26.4534 264.834 26.2401C264.3 26.0267 263.66 25.8134 262.914 25.6001C262.22 25.3334 261.42 25.0934 260.514 24.8801C259.66 24.6667 258.727 24.5601 257.714 24.5601C255.794 24.5601 254.007 24.8801 252.354 25.5201C250.754 26.1067 249.367 26.9334 248.194 28.0001C247.074 29.0134 246.194 30.2134 245.554 31.6001C244.914 32.9867 244.594 34.4534 244.594 36.0001C244.594 37.4401 244.834 38.6934 245.314 39.7601C245.794 40.7734 246.38 41.6534 247.074 42.4001C247.82 43.1467 248.62 43.7601 249.474 44.2401C250.327 44.6667 251.127 45.0134 251.874 45.2801L258.354 47.6801C259.794 48.2134 260.914 48.7467 261.714 49.2801C262.567 49.7601 263.207 50.2667 263.634 50.8001C264.06 51.3334 264.327 51.8667 264.434 52.4001C264.594 52.8801 264.674 53.3601 264.674 53.8401C264.674 55.3867 264.38 56.5867 263.794 57.4401C263.26 58.2401 262.594 58.8534 261.794 59.2801C261.047 59.6534 260.274 59.8667 259.474 59.9201C258.674 59.9734 258.034 60.0001 257.554 60.0001C255.687 60.0001 254.114 59.6801 252.834 59.0401C251.554 58.3467 250.46 57.4667 249.554 56.4001C248.647 55.3334 247.847 54.1067 247.154 52.7201C246.514 51.3334 245.874 49.8934 245.234 48.4001H244.114Z" stroke="black" stroke-width="3" mask="url(#path-1-outside-1_295_2)"/>
<path d="M1.80005 106.04V107.16H8.04005L26.6 139.56V161.88H19.24V163H45.6401V161.88H38.2001V136.52L53.64 107.16H60.6001V106.04H45.3201V107.16H52.2801L37.5601 135.08L21.24 107.16H27.56V106.04H1.80005Z" stroke="black" stroke-width="3" mask="url(#path-1-outside-1_295_2)"/>
<path d="M85.5682 163C83.4882 163 81.8615 162.52 80.6882 161.56C79.5148 160.547 78.6348 159.24 78.0482 157.64C77.5148 156.04 77.1682 154.2 77.0082 152.12C76.9015 150.04 76.8482 147.933 76.8482 145.8C76.8482 143.667 76.9015 141.587 77.0082 139.56C77.1682 137.48 77.5148 135.64 78.0482 134.04C78.6348 132.44 79.5148 131.16 80.6882 130.2C81.8615 129.187 83.4882 128.68 85.5682 128.68C87.6482 128.68 89.2748 129.187 90.4482 130.2C91.6215 131.16 92.4748 132.44 93.0082 134.04C93.5948 135.64 93.9415 137.48 94.0482 139.56C94.2082 141.587 94.2882 143.667 94.2882 145.8C94.2882 147.933 94.2082 150.04 94.0482 152.12C93.9415 154.2 93.5948 156.04 93.0082 157.64C92.4748 159.24 91.6215 160.547 90.4482 161.56C89.2748 162.52 87.6482 163 85.5682 163ZM85.5682 127.56C82.7948 127.56 80.2082 128.067 77.8082 129.08C75.4615 130.04 73.4082 131.347 71.6482 133C69.8882 134.653 68.5015 136.6 67.4882 138.84C66.5282 141.027 66.0482 143.347 66.0482 145.8C66.0482 148.307 66.5282 150.68 67.4882 152.92C68.5015 155.107 69.8882 157.027 71.6482 158.68C73.4082 160.333 75.4615 161.64 77.8082 162.6C80.2082 163.56 82.7948 164.04 85.5682 164.04C88.3415 164.04 90.9015 163.56 93.2482 162.6C95.6482 161.64 97.7282 160.333 99.4882 158.68C101.248 157.027 102.608 155.107 103.568 152.92C104.582 150.68 105.088 148.307 105.088 145.8C105.088 143.347 104.582 141.027 103.568 138.84C102.608 136.6 101.248 134.653 99.4882 133C97.7282 131.347 95.6482 130.04 93.2482 129.08C90.9015 128.067 88.3415 127.56 85.5682 127.56Z" stroke="black" stroke-width="3" mask="url(#path-1-outside-1_295_2)"/>
<path d="M113.941 128.68V129.8H119.301V152.92C119.301 156.813 120.288 159.587 122.261 161.24C124.235 162.84 127.088 163.64 130.821 163.64C131.995 163.64 133.195 163.48 134.421 163.16C135.648 162.893 136.795 162.467 137.861 161.88C138.981 161.24 139.968 160.493 140.821 159.64C141.675 158.733 142.315 157.693 142.741 156.52H142.901V163H157.781V161.88H152.501V128.68H137.461V129.8H142.741V150.44C142.741 151.88 142.528 153.267 142.101 154.6C141.728 155.933 141.168 157.107 140.421 158.12C139.728 159.08 138.875 159.853 137.861 160.44C136.848 161.027 135.728 161.32 134.501 161.32C132.475 161.32 131.061 160.627 130.261 159.24C129.461 157.8 129.061 156.067 129.061 154.04V128.68H113.941Z" stroke="black" stroke-width="3" mask="url(#path-1-outside-1_295_2)"/>
<path d="M167.968 128.68V129.8H173.168V161.88H167.968V163H189.248V161.88H182.928V141.4C182.928 139.693 183.168 138.173 183.648 136.84C184.181 135.453 184.794 134.28 185.488 133.32C186.181 132.36 186.928 131.64 187.728 131.16C188.528 130.627 189.194 130.36 189.728 130.36C190.208 130.36 190.554 130.467 190.768 130.68C191.034 130.84 191.221 131.053 191.328 131.32C191.434 131.533 191.488 131.747 191.488 131.96C191.541 132.173 191.568 132.28 191.568 132.28C191.568 132.333 191.541 132.547 191.488 132.92C191.434 133.293 191.354 133.72 191.248 134.2C191.194 134.627 191.141 135.053 191.088 135.48C191.034 135.853 191.008 136.12 191.008 136.28C191.008 137.667 191.514 138.627 192.528 139.16C193.541 139.64 194.661 139.88 195.888 139.88C197.594 139.88 198.821 139.427 199.568 138.52C200.368 137.613 200.768 136.36 200.768 134.76C200.768 132.627 200.074 130.973 198.688 129.8C197.301 128.573 195.488 127.96 193.248 127.96C190.581 127.96 188.421 128.707 186.768 130.2C185.168 131.64 183.888 133.373 182.928 135.4H182.768V128.68H167.968Z" stroke="black" stroke-width="3" mask="url(#path-1-outside-1_295_2)"/>
<mask id="path-2-outside-2_295_2" maskUnits="userSpaceOnUse" x="4.67993" y="199.32" width="243" height="85" fill="black">
<rect fill="white" x="4.67993" y="199.32" width="243" height="85"/>
<path d="M6.67993 202.04V203.16H14.0399V257.88H6.67993V259H57.3999V240.92H56.3599C55.6666 244.013 54.6799 246.653 53.3999 248.84C52.1733 250.973 50.7599 252.733 49.1599 254.12C47.6133 255.453 45.9333 256.413 44.1199 257C42.3599 257.587 40.5999 257.88 38.8399 257.88H25.6399V203.16H32.9999V202.04H6.67993ZM72.1743 207.48C72.1743 209.027 72.7343 210.36 73.8543 211.48C74.9743 212.6 76.3076 213.16 77.8543 213.16C79.401 213.16 80.7343 212.6 81.8543 211.48C82.9743 210.36 83.5343 209.027 83.5343 207.48C83.5343 205.933 82.9743 204.6 81.8543 203.48C80.7343 202.36 79.401 201.8 77.8543 201.8C76.3076 201.8 74.9743 202.36 73.8543 203.48C72.7343 204.6 72.1743 205.933 72.1743 207.48ZM67.6143 224.68V225.8H72.9743V257.88H67.6143V259H88.0943V257.88H82.7343V224.68H67.6143ZM105.169 271.48C105.169 269.347 105.595 267.64 106.449 266.36C107.355 265.08 108.609 263.8 110.209 262.52H118.529C119.329 262.52 120.209 262.627 121.169 262.84C122.129 263.053 123.009 263.453 123.809 264.04C124.609 264.627 125.275 265.4 125.809 266.36C126.342 267.373 126.609 268.68 126.609 270.28C126.609 271.88 126.289 273.347 125.649 274.68C125.009 276.013 124.155 277.16 123.089 278.12C122.075 279.08 120.875 279.827 119.489 280.36C118.102 280.893 116.635 281.16 115.089 281.16C113.062 281.16 111.409 280.84 110.129 280.2C108.849 279.56 107.835 278.733 107.089 277.72C106.342 276.76 105.835 275.72 105.569 274.6C105.302 273.48 105.169 272.44 105.169 271.48ZM114.449 245.64C113.542 245.64 112.689 245.533 111.889 245.32C111.089 245.107 110.395 244.627 109.809 243.88C109.275 243.08 108.849 241.933 108.529 240.44C108.209 238.947 108.049 236.947 108.049 234.44C108.049 233.213 108.129 232.013 108.289 230.84C108.449 229.667 108.742 228.627 109.169 227.72C109.649 226.813 110.315 226.093 111.169 225.56C112.022 224.973 113.115 224.68 114.449 224.68C115.889 224.68 117.009 224.947 117.809 225.48C118.609 226.013 119.222 226.76 119.649 227.72C120.075 228.68 120.342 229.827 120.449 231.16C120.555 232.44 120.609 233.853 120.609 235.4C120.609 237.587 120.449 239.373 120.129 240.76C119.862 242.093 119.462 243.133 118.929 243.88C118.395 244.573 117.755 245.053 117.009 245.32C116.262 245.533 115.409 245.64 114.449 245.64ZM116.849 253.32H108.049C106.235 253.32 104.795 253 103.729 252.36C102.662 251.72 102.129 250.733 102.129 249.4C102.129 248.813 102.262 248.173 102.529 247.48C102.795 246.733 103.702 245.853 105.249 244.84C106.315 245.267 107.675 245.693 109.329 246.12C110.982 246.547 112.875 246.76 115.009 246.76C117.675 246.76 119.915 246.44 121.729 245.8C123.542 245.107 125.009 244.227 126.129 243.16C127.302 242.093 128.129 240.92 128.609 239.64C129.142 238.307 129.409 236.973 129.409 235.64C129.409 233.453 129.035 231.8 128.289 230.68C127.542 229.507 126.849 228.573 126.209 227.88C127.275 227.133 128.022 226.653 128.449 226.44C128.875 226.173 129.249 226.04 129.569 226.04C130.155 226.04 130.502 226.227 130.609 226.6C130.715 226.973 130.822 227.533 130.929 228.28C130.982 228.493 131.035 228.787 131.089 229.16C131.195 229.48 131.355 229.8 131.569 230.12C131.835 230.387 132.182 230.627 132.609 230.84C133.089 231.053 133.702 231.16 134.449 231.16C135.515 231.16 136.369 230.867 137.009 230.28C137.649 229.64 137.969 228.787 137.969 227.72C137.969 226.493 137.569 225.507 136.769 224.76C136.022 223.96 134.875 223.56 133.329 223.56C131.569 223.56 130.155 223.88 129.089 224.52C128.022 225.107 126.822 226.013 125.489 227.24C124.262 226.28 122.769 225.427 121.009 224.68C119.302 223.933 117.249 223.56 114.849 223.56C112.449 223.56 110.262 223.88 108.289 224.52C106.369 225.16 104.742 226.04 103.409 227.16C102.075 228.227 101.035 229.507 100.289 231C99.5953 232.44 99.2487 233.987 99.2487 235.64C99.2487 236.813 99.4087 237.853 99.7287 238.76C100.102 239.613 100.529 240.387 101.009 241.08C101.542 241.72 102.102 242.307 102.689 242.84C103.275 243.32 103.809 243.747 104.289 244.12C102.635 245.027 101.302 245.987 100.289 247C99.3287 248.013 98.6087 249 98.1287 249.96C97.6487 250.867 97.3287 251.667 97.1687 252.36C97.062 253.053 97.0087 253.533 97.0087 253.8C97.0087 255.453 97.4087 256.84 98.2087 257.96C99.0087 259.08 99.9953 259.96 101.169 260.6C102.342 261.24 103.595 261.693 104.929 261.96C106.315 262.227 107.542 262.36 108.609 262.36V262.52C107.382 262.84 106.129 263.293 104.849 263.88C103.622 264.467 102.475 265.16 101.409 265.96C100.395 266.813 99.5687 267.8 98.9287 268.92C98.2887 270.04 97.9687 271.32 97.9687 272.76C97.9687 273.507 98.1287 274.413 98.4487 275.48C98.7687 276.6 99.462 277.667 100.529 278.68C101.595 279.747 103.115 280.653 105.089 281.4C107.115 282.147 109.809 282.52 113.169 282.52C116.155 282.52 118.795 282.04 121.089 281.08C123.435 280.12 125.435 278.867 127.089 277.32C128.742 275.773 129.995 274.013 130.849 272.04C131.702 270.067 132.129 268.04 132.129 265.96C132.129 263.507 131.702 261.453 130.849 259.8C129.995 258.2 128.875 256.92 127.489 255.96C126.102 255 124.475 254.333 122.609 253.96C120.795 253.533 118.875 253.32 116.849 253.32ZM143.897 257.88V259H163.977V257.88H158.937V240.76C158.937 238.307 159.204 236.173 159.737 234.36C160.271 232.547 160.964 231.027 161.817 229.8C162.724 228.573 163.764 227.667 164.937 227.08C166.111 226.44 167.337 226.12 168.617 226.12C170.164 226.12 171.391 226.653 172.297 227.72C173.204 228.733 173.657 230.36 173.657 232.6V257.88H168.697V259H188.777V257.88H183.417V235.32C183.417 231.8 182.431 229.027 180.457 227C178.537 224.973 175.817 223.96 172.297 223.96C169.897 223.96 167.897 224.307 166.297 225C164.751 225.693 163.471 226.52 162.457 227.48C161.444 228.387 160.671 229.32 160.137 230.28C159.657 231.187 159.311 231.88 159.097 232.36H158.937V201.32H143.897V202.44H149.177V257.88H143.897ZM203.408 214.36V224.68H198.048V225.8H203.408V250.44C203.408 251.4 203.461 252.44 203.568 253.56C203.675 254.68 204.075 255.72 204.768 256.68C205.515 257.64 206.635 258.44 208.128 259.08C209.675 259.72 211.835 260.04 214.608 260.04C215.621 260.04 216.688 259.933 217.808 259.72C218.928 259.56 219.968 259.187 220.928 258.6C221.941 258.013 222.821 257.187 223.568 256.12C224.368 255 224.928 253.533 225.248 251.72L224.048 251.48C223.835 252.28 223.541 253.107 223.168 253.96C222.848 254.813 222.421 255.587 221.888 256.28C221.355 256.92 220.715 257.453 219.968 257.88C219.275 258.307 218.421 258.52 217.408 258.52C216.501 258.52 215.755 258.36 215.168 258.04C214.635 257.72 214.208 257.293 213.888 256.76C213.621 256.173 213.435 255.533 213.328 254.84C213.221 254.147 213.168 253.4 213.168 252.6V225.8H222.528V224.68H213.168V214.36C212.368 214.68 211.541 214.947 210.688 215.16C209.888 215.373 209.088 215.48 208.288 215.48C207.488 215.48 206.661 215.373 205.808 215.16C205.008 214.947 204.208 214.68 203.408 214.36ZM234.377 254.12C234.377 255.667 234.937 257 236.057 258.12C237.177 259.187 238.511 259.72 240.057 259.72C241.604 259.72 242.937 259.187 244.057 258.12C245.177 257 245.737 255.667 245.737 254.12C245.737 252.573 245.177 251.24 244.057 250.12C242.937 249 241.604 248.44 240.057 248.44C238.511 248.44 237.177 249 236.057 250.12C234.937 251.24 234.377 252.573 234.377 254.12Z"/>
</mask>
<path d="M6.67993 202.04V203.16H14.0399V257.88H6.67993V259H57.3999V240.92H56.3599C55.6666 244.013 54.6799 246.653 53.3999 248.84C52.1733 250.973 50.7599 252.733 49.1599 254.12C47.6133 255.453 45.9333 256.413 44.1199 257C42.3599 257.587 40.5999 257.88 38.8399 257.88H25.6399V203.16H32.9999V202.04H6.67993ZM72.1743 207.48C72.1743 209.027 72.7343 210.36 73.8543 211.48C74.9743 212.6 76.3076 213.16 77.8543 213.16C79.401 213.16 80.7343 212.6 81.8543 211.48C82.9743 210.36 83.5343 209.027 83.5343 207.48C83.5343 205.933 82.9743 204.6 81.8543 203.48C80.7343 202.36 79.401 201.8 77.8543 201.8C76.3076 201.8 74.9743 202.36 73.8543 203.48C72.7343 204.6 72.1743 205.933 72.1743 207.48ZM67.6143 224.68V225.8H72.9743V257.88H67.6143V259H88.0943V257.88H82.7343V224.68H67.6143ZM105.169 271.48C105.169 269.347 105.595 267.64 106.449 266.36C107.355 265.08 108.609 263.8 110.209 262.52H118.529C119.329 262.52 120.209 262.627 121.169 262.84C122.129 263.053 123.009 263.453 123.809 264.04C124.609 264.627 125.275 265.4 125.809 266.36C126.342 267.373 126.609 268.68 126.609 270.28C126.609 271.88 126.289 273.347 125.649 274.68C125.009 276.013 124.155 277.16 123.089 278.12C122.075 279.08 120.875 279.827 119.489 280.36C118.102 280.893 116.635 281.16 115.089 281.16C113.062 281.16 111.409 280.84 110.129 280.2C108.849 279.56 107.835 278.733 107.089 277.72C106.342 276.76 105.835 275.72 105.569 274.6C105.302 273.48 105.169 272.44 105.169 271.48ZM114.449 245.64C113.542 245.64 112.689 245.533 111.889 245.32C111.089 245.107 110.395 244.627 109.809 243.88C109.275 243.08 108.849 241.933 108.529 240.44C108.209 238.947 108.049 236.947 108.049 234.44C108.049 233.213 108.129 232.013 108.289 230.84C108.449 229.667 108.742 228.627 109.169 227.72C109.649 226.813 110.315 226.093 111.169 225.56C112.022 224.973 113.115 224.68 114.449 224.68C115.889 224.68 117.009 224.947 117.809 225.48C118.609 226.013 119.222 226.76 119.649 227.72C120.075 228.68 120.342 229.827 120.449 231.16C120.555 232.44 120.609 233.853 120.609 235.4C120.609 237.587 120.449 239.373 120.129 240.76C119.862 242.093 119.462 243.133 118.929 243.88C118.395 244.573 117.755 245.053 117.009 245.32C116.262 245.533 115.409 245.64 114.449 245.64ZM116.849 253.32H108.049C106.235 253.32 104.795 253 103.729 252.36C102.662 251.72 102.129 250.733 102.129 249.4C102.129 248.813 102.262 248.173 102.529 247.48C102.795 246.733 103.702 245.853 105.249 244.84C106.315 245.267 107.675 245.693 109.329 246.12C110.982 246.547 112.875 246.76 115.009 246.76C117.675 246.76 119.915 246.44 121.729 245.8C123.542 245.107 125.009 244.227 126.129 243.16C127.302 242.093 128.129 240.92 128.609 239.64C129.142 238.307 129.409 236.973 129.409 235.64C129.409 233.453 129.035 231.8 128.289 230.68C127.542 229.507 126.849 228.573 126.209 227.88C127.275 227.133 128.022 226.653 128.449 226.44C128.875 226.173 129.249 226.04 129.569 226.04C130.155 226.04 130.502 226.227 130.609 226.6C130.715 226.973 130.822 227.533 130.929 228.28C130.982 228.493 131.035 228.787 131.089 229.16C131.195 229.48 131.355 229.8 131.569 230.12C131.835 230.387 132.182 230.627 132.609 230.84C133.089 231.053 133.702 231.16 134.449 231.16C135.515 231.16 136.369 230.867 137.009 230.28C137.649 229.64 137.969 228.787 137.969 227.72C137.969 226.493 137.569 225.507 136.769 224.76C136.022 223.96 134.875 223.56 133.329 223.56C131.569 223.56 130.155 223.88 129.089 224.52C128.022 225.107 126.822 226.013 125.489 227.24C124.262 226.28 122.769 225.427 121.009 224.68C119.302 223.933 117.249 223.56 114.849 223.56C112.449 223.56 110.262 223.88 108.289 224.52C106.369 225.16 104.742 226.04 103.409 227.16C102.075 228.227 101.035 229.507 100.289 231C99.5953 232.44 99.2487 233.987 99.2487 235.64C99.2487 236.813 99.4087 237.853 99.7287 238.76C100.102 239.613 100.529 240.387 101.009 241.08C101.542 241.72 102.102 242.307 102.689 242.84C103.275 243.32 103.809 243.747 104.289 244.12C102.635 245.027 101.302 245.987 100.289 247C99.3287 248.013 98.6087 249 98.1287 249.96C97.6487 250.867 97.3287 251.667 97.1687 252.36C97.062 253.053 97.0087 253.533 97.0087 253.8C97.0087 255.453 97.4087 256.84 98.2087 257.96C99.0087 259.08 99.9953 259.96 101.169 260.6C102.342 261.24 103.595 261.693 104.929 261.96C106.315 262.227 107.542 262.36 108.609 262.36V262.52C107.382 262.84 106.129 263.293 104.849 263.88C103.622 264.467 102.475 265.16 101.409 265.96C100.395 266.813 99.5687 267.8 98.9287 268.92C98.2887 270.04 97.9687 271.32 97.9687 272.76C97.9687 273.507 98.1287 274.413 98.4487 275.48C98.7687 276.6 99.462 277.667 100.529 278.68C101.595 279.747 103.115 280.653 105.089 281.4C107.115 282.147 109.809 282.52 113.169 282.52C116.155 282.52 118.795 282.04 121.089 281.08C123.435 280.12 125.435 278.867 127.089 277.32C128.742 275.773 129.995 274.013 130.849 272.04C131.702 270.067 132.129 268.04 132.129 265.96C132.129 263.507 131.702 261.453 130.849 259.8C129.995 258.2 128.875 256.92 127.489 255.96C126.102 255 124.475 254.333 122.609 253.96C120.795 253.533 118.875 253.32 116.849 253.32ZM143.897 257.88V259H163.977V257.88H158.937V240.76C158.937 238.307 159.204 236.173 159.737 234.36C160.271 232.547 160.964 231.027 161.817 229.8C162.724 228.573 163.764 227.667 164.937 227.08C166.111 226.44 167.337 226.12 168.617 226.12C170.164 226.12 171.391 226.653 172.297 227.72C173.204 228.733 173.657 230.36 173.657 232.6V257.88H168.697V259H188.777V257.88H183.417V235.32C183.417 231.8 182.431 229.027 180.457 227C178.537 224.973 175.817 223.96 172.297 223.96C169.897 223.96 167.897 224.307 166.297 225C164.751 225.693 163.471 226.52 162.457 227.48C161.444 228.387 160.671 229.32 160.137 230.28C159.657 231.187 159.311 231.88 159.097 232.36H158.937V201.32H143.897V202.44H149.177V257.88H143.897ZM203.408 214.36V224.68H198.048V225.8H203.408V250.44C203.408 251.4 203.461 252.44 203.568 253.56C203.675 254.68 204.075 255.72 204.768 256.68C205.515 257.64 206.635 258.44 208.128 259.08C209.675 259.72 211.835 260.04 214.608 260.04C215.621 260.04 216.688 259.933 217.808 259.72C218.928 259.56 219.968 259.187 220.928 258.6C221.941 258.013 222.821 257.187 223.568 256.12C224.368 255 224.928 253.533 225.248 251.72L224.048 251.48C223.835 252.28 223.541 253.107 223.168 253.96C222.848 254.813 222.421 255.587 221.888 256.28C221.355 256.92 220.715 257.453 219.968 257.88C219.275 258.307 218.421 258.52 217.408 258.52C216.501 258.52 215.755 258.36 215.168 258.04C214.635 257.72 214.208 257.293 213.888 256.76C213.621 256.173 213.435 255.533 213.328 254.84C213.221 254.147 213.168 253.4 213.168 252.6V225.8H222.528V224.68H213.168V214.36C212.368 214.68 211.541 214.947 210.688 215.16C209.888 215.373 209.088 215.48 208.288 215.48C207.488 215.48 206.661 215.373 205.808 215.16C205.008 214.947 204.208 214.68 203.408 214.36ZM234.377 254.12C234.377 255.667 234.937 257 236.057 258.12C237.177 259.187 238.511 259.72 240.057 259.72C241.604 259.72 242.937 259.187 244.057 258.12C245.177 257 245.737 255.667 245.737 254.12C245.737 252.573 245.177 251.24 244.057 250.12C242.937 249 241.604 248.44 240.057 248.44C238.511 248.44 237.177 249 236.057 250.12C234.937 251.24 234.377 252.573 234.377 254.12Z" stroke="black" stroke-width="3" mask="url(#path-2-outside-2_295_2)"/>
<path d="M5.17285 359L12.668 323.209H22.3115C24.9971 323.209 26.7142 323.25 27.4629 323.331C28.944 323.478 30.2624 323.779 31.418 324.234C32.5898 324.69 33.6478 325.333 34.5918 326.163C35.5521 326.977 36.374 327.962 37.0576 329.117C37.7575 330.273 38.2946 331.607 38.6689 333.121C39.0433 334.618 39.2305 336.262 39.2305 338.053C39.2305 341.91 38.4899 345.336 37.0088 348.331C35.5439 351.31 33.6966 353.678 31.4668 355.436C29.7578 356.803 27.5524 357.812 24.8506 358.463C23.3206 358.821 20.9688 359 17.7949 359H5.17285ZM13.7422 353.238H17.4775C20.1794 353.238 22.1325 353.076 23.3369 352.75C24.5576 352.408 25.6725 351.782 26.6816 350.87C28.1302 349.552 29.3509 347.794 30.3438 345.597C31.3366 343.399 31.833 340.812 31.833 337.833C31.833 335.294 31.418 333.39 30.5879 332.12C29.7741 330.834 28.765 329.98 27.5605 329.557C26.7142 329.264 25.2087 329.117 23.0439 329.117H18.7715L13.7422 353.238Z" fill="black"/>
<path d="M44.6602 348.233C44.6602 343.432 46.0111 339.607 48.7129 336.759C51.431 333.894 54.9954 332.462 59.4062 332.462C63.2311 332.462 66.2178 333.52 68.3662 335.636C70.5146 337.735 71.5889 340.567 71.5889 344.132C71.5889 348.331 70.2461 351.961 67.5605 355.021C64.875 358.08 61.278 359.61 56.7695 359.61C54.3281 359.61 52.1634 359.122 50.2754 358.146C48.3874 357.169 46.9795 355.785 46.0518 353.995C45.124 352.205 44.6602 350.284 44.6602 348.233ZM64.6309 343.229C64.6309 341.568 64.1426 340.242 63.166 339.249C62.2057 338.24 60.9606 337.735 59.4307 337.735C57.917 337.735 56.5742 338.207 55.4023 339.151C54.2305 340.079 53.319 341.438 52.668 343.229C52.0169 345.003 51.6914 346.638 51.6914 348.136C51.6914 349.991 52.196 351.464 53.2051 352.555C54.2142 353.645 55.4837 354.19 57.0137 354.19C58.9342 354.19 60.5456 353.368 61.8477 351.725C63.7031 349.397 64.6309 346.565 64.6309 343.229Z" fill="black"/>
<path d="M95.29 333.072H102.272L104.03 345.987C104.47 349.308 104.714 351.635 104.763 352.97C105.674 350.317 106.927 347.517 108.522 344.571L114.724 333.072H122.146L106.13 361.539C104.812 363.899 103.77 365.551 103.005 366.495C102.256 367.439 101.345 368.18 100.271 368.717C99.2126 369.254 97.9349 369.522 96.4375 369.522C94.9564 369.522 93.2881 369.262 91.4326 368.741L92.043 363.517C92.8893 363.761 93.7113 363.883 94.5088 363.883C96.6572 363.883 98.4232 362.255 99.8066 359L95.29 333.072Z" fill="black"/>
<path d="M124.475 348.233C124.475 343.432 125.826 339.607 128.527 336.759C131.245 333.894 134.81 332.462 139.221 332.462C143.046 332.462 146.032 333.52 148.181 335.636C150.329 337.735 151.403 340.567 151.403 344.132C151.403 348.331 150.061 351.961 147.375 355.021C144.689 358.08 141.092 359.61 136.584 359.61C134.143 359.61 131.978 359.122 130.09 358.146C128.202 357.169 126.794 355.785 125.866 353.995C124.938 352.205 124.475 350.284 124.475 348.233ZM144.445 343.229C144.445 341.568 143.957 340.242 142.98 339.249C142.02 338.24 140.775 337.735 139.245 337.735C137.731 337.735 136.389 338.207 135.217 339.151C134.045 340.079 133.133 341.438 132.482 343.229C131.831 345.003 131.506 346.638 131.506 348.136C131.506 349.991 132.01 351.464 133.02 352.555C134.029 353.645 135.298 354.19 136.828 354.19C138.749 354.19 140.36 353.368 141.662 351.725C143.518 349.397 144.445 346.565 144.445 343.229Z" fill="black"/>
<path d="M161.887 333.072H168.894L165.695 348.429C165.305 350.268 165.109 351.415 165.109 351.871C165.109 352.62 165.386 353.263 165.939 353.8C166.493 354.337 167.201 354.605 168.063 354.605C168.682 354.605 169.292 354.492 169.895 354.264C170.497 354.02 171.115 353.661 171.75 353.189C172.385 352.701 172.954 352.148 173.459 351.529C173.964 350.911 174.436 350.097 174.875 349.088C175.184 348.339 175.518 347.118 175.876 345.426L178.464 333.072H185.471L180.051 359H173.508L174.24 355.484C171.376 358.235 168.259 359.61 164.89 359.61C162.757 359.61 161.081 359 159.86 357.779C158.64 356.559 158.029 354.923 158.029 352.872C158.029 351.977 158.306 350.195 158.859 347.525L161.887 333.072Z" fill="black"/>
<path d="M233.098 359H226.506L225.236 342.496L217.326 359H210.832L207.585 333.072H213.811L215.617 350.455L223.698 333.072H230.07L230.949 350.455L238.981 333.072H246.013L233.098 359Z" fill="black"/>
<path d="M257.302 340.421L250.466 339.835C251.247 337.524 252.606 335.717 254.543 334.415C256.496 333.113 259.076 332.462 262.282 332.462C265.619 332.462 268.085 333.137 269.68 334.488C271.275 335.823 272.072 337.459 272.072 339.396C272.072 340.177 271.999 341.007 271.853 341.886C271.722 342.765 271.242 345.076 270.412 348.819C269.729 351.912 269.387 354.076 269.387 355.313C269.387 356.42 269.582 357.649 269.973 359H263.161C262.884 358.056 262.714 357.079 262.648 356.07C261.623 357.21 260.443 358.089 259.108 358.707C257.774 359.309 256.431 359.61 255.08 359.61C252.932 359.61 251.158 358.91 249.758 357.511C248.358 356.095 247.658 354.28 247.658 352.066C247.658 349.592 248.423 347.615 249.953 346.134C251.499 344.653 254.25 343.757 258.205 343.448C261.542 343.172 263.771 342.838 264.895 342.447C265.188 341.471 265.334 340.689 265.334 340.104C265.334 339.355 265.033 338.728 264.431 338.224C263.828 337.719 262.933 337.467 261.745 337.467C260.492 337.467 259.499 337.727 258.767 338.248C258.05 338.753 257.562 339.477 257.302 340.421ZM263.967 346.915C263.544 347.029 262.982 347.135 262.282 347.232C258.767 347.656 256.472 348.274 255.397 349.088C254.632 349.674 254.25 350.463 254.25 351.456C254.25 352.27 254.543 352.962 255.129 353.531C255.715 354.085 256.488 354.361 257.448 354.361C258.506 354.361 259.499 354.109 260.427 353.604C261.371 353.084 262.071 352.424 262.526 351.627C262.998 350.813 263.413 349.552 263.771 347.843L263.967 346.915Z" fill="black"/>
<path d="M283.264 333.072H289.904L289.221 336.441C290.881 335.009 292.427 333.992 293.859 333.39C295.308 332.771 296.83 332.462 298.425 332.462C300.557 332.462 302.233 333.072 303.454 334.293C304.691 335.514 305.31 337.133 305.31 339.151C305.31 340.063 305.041 341.788 304.504 344.327L301.452 359H294.445L297.521 344.278C297.977 342.081 298.205 340.771 298.205 340.348C298.205 339.452 297.937 338.753 297.399 338.248C296.879 337.727 296.146 337.467 295.202 337.467C294.177 337.467 293.037 337.898 291.784 338.761C290.531 339.623 289.546 340.763 288.83 342.179C288.309 343.188 287.723 345.247 287.072 348.355L284.851 359H277.844L283.264 333.072Z" fill="black"/>
<path d="M312.57 338.272L313.645 333.072H317.062L317.917 328.922L325.949 324.088L324.069 333.072H328.342L327.268 338.272H322.971L320.7 349.137C320.293 351.106 320.09 352.229 320.09 352.506C320.09 353.043 320.261 353.466 320.603 353.775C320.944 354.068 321.563 354.215 322.458 354.215C322.767 354.215 323.54 354.158 324.777 354.044L323.679 359.244C322.474 359.488 321.237 359.61 319.968 359.61C317.494 359.61 315.695 359.138 314.572 358.194C313.449 357.234 312.888 355.908 312.888 354.215C312.888 353.417 313.189 351.578 313.791 348.697L315.964 338.272H312.57Z" fill="black"/>
<path d="M348.137 338.272L349.211 333.072H352.629L353.483 328.922L361.516 324.088L359.636 333.072H363.908L362.834 338.272H358.537L356.267 349.137C355.86 351.106 355.656 352.229 355.656 352.506C355.656 353.043 355.827 353.466 356.169 353.775C356.511 354.068 357.129 354.215 358.024 354.215C358.334 354.215 359.107 354.158 360.344 354.044L359.245 359.244C358.041 359.488 356.804 359.61 355.534 359.61C353.06 359.61 351.262 359.138 350.139 358.194C349.016 357.234 348.454 355.908 348.454 354.215C348.454 353.417 348.755 351.578 349.357 348.697L351.53 338.272H348.137Z" fill="black"/>
<path d="M366.555 348.233C366.555 343.432 367.906 339.607 370.607 336.759C373.326 333.894 376.89 332.462 381.301 332.462C385.126 332.462 388.112 333.52 390.261 335.636C392.409 337.735 393.483 340.567 393.483 344.132C393.483 348.331 392.141 351.961 389.455 355.021C386.77 358.08 383.173 359.61 378.664 359.61C376.223 359.61 374.058 359.122 372.17 358.146C370.282 357.169 368.874 355.785 367.946 353.995C367.019 352.205 366.555 350.284 366.555 348.233ZM386.525 343.229C386.525 341.568 386.037 340.242 385.061 339.249C384.1 338.24 382.855 337.735 381.325 337.735C379.812 337.735 378.469 338.207 377.297 339.151C376.125 340.079 375.214 341.438 374.562 343.229C373.911 345.003 373.586 346.638 373.586 348.136C373.586 349.991 374.09 351.464 375.1 352.555C376.109 353.645 377.378 354.19 378.908 354.19C380.829 354.19 382.44 353.368 383.742 351.725C385.598 349.397 386.525 346.565 386.525 343.229Z" fill="black"/>
<path d="M416.037 348.233C416.037 343.432 417.388 339.607 420.09 336.759C422.808 333.894 426.372 332.462 430.783 332.462C434.608 332.462 437.595 333.52 439.743 335.636C441.892 337.735 442.966 340.567 442.966 344.132C442.966 348.331 441.623 351.961 438.938 355.021C436.252 358.08 432.655 359.61 428.146 359.61C425.705 359.61 423.54 359.122 421.652 358.146C419.764 357.169 418.356 355.785 417.429 353.995C416.501 352.205 416.037 350.284 416.037 348.233ZM436.008 343.229C436.008 341.568 435.52 340.242 434.543 339.249C433.583 338.24 432.338 337.735 430.808 337.735C429.294 337.735 427.951 338.207 426.779 339.151C425.607 340.079 424.696 341.438 424.045 343.229C423.394 345.003 423.068 346.638 423.068 348.136C423.068 349.991 423.573 351.464 424.582 352.555C425.591 353.645 426.861 354.19 428.391 354.19C430.311 354.19 431.923 353.368 433.225 351.725C435.08 349.397 436.008 346.565 436.008 343.229Z" fill="black"/>
<path d="M453.107 333.072H459.65L458.601 338.102C461.042 334.342 463.687 332.462 466.535 332.462C467.544 332.462 468.627 332.714 469.782 333.219L467.097 338.956C466.462 338.728 465.786 338.614 465.07 338.614C463.866 338.614 462.637 339.07 461.384 339.981C460.147 340.893 459.178 342.114 458.479 343.644C457.779 345.157 457.087 347.566 456.403 350.87L454.694 359H447.688L453.107 333.072Z" fill="black"/>
<path d="M494.011 359H487.37L487.956 356.192C486.687 357.413 485.433 358.292 484.196 358.829C482.976 359.35 481.592 359.61 480.046 359.61C477.36 359.61 475.179 358.699 473.503 356.876C471.843 355.037 471.013 352.327 471.013 348.746C471.013 344.596 472.185 340.844 474.528 337.491C476.872 334.138 479.973 332.462 483.83 332.462C487.313 332.462 489.925 333.845 491.667 336.612L494.475 323.209H501.481L494.011 359ZM477.824 348.453C477.824 350.309 478.288 351.757 479.216 352.799C480.16 353.84 481.315 354.361 482.683 354.361C483.952 354.361 485.132 353.93 486.223 353.067C487.329 352.188 488.208 350.854 488.859 349.063C489.527 347.273 489.86 345.556 489.86 343.912C489.86 342.04 489.356 340.527 488.347 339.371C487.338 338.215 486.174 337.638 484.855 337.638C482.805 337.638 481.12 338.777 479.802 341.056C478.483 343.334 477.824 345.8 477.824 348.453Z" fill="black"/>
<path d="M528.371 348.209H510.793C510.777 348.486 510.769 348.697 510.769 348.844C510.769 350.569 511.257 351.961 512.233 353.019C513.226 354.076 514.431 354.605 515.847 354.605C518.174 354.605 519.989 353.401 521.291 350.992L527.565 352.042C526.345 354.565 524.709 356.461 522.658 357.73C520.624 358.984 518.337 359.61 515.798 359.61C512.315 359.61 509.483 358.512 507.302 356.314C505.121 354.101 504.03 351.179 504.03 347.55C504.03 344.002 505.015 340.844 506.984 338.077C509.67 334.334 513.503 332.462 518.483 332.462C521.657 332.462 524.18 333.447 526.052 335.416C527.924 337.369 528.859 340.112 528.859 343.644C528.859 345.336 528.697 346.858 528.371 348.209ZM522.463 343.937C522.479 343.627 522.487 343.391 522.487 343.229C522.487 341.308 522.056 339.868 521.193 338.907C520.331 337.947 519.175 337.467 517.727 337.467C516.278 337.467 514.976 338.012 513.82 339.103C512.681 340.193 511.908 341.804 511.501 343.937H522.463Z" fill="black"/>
<path d="M538.488 333.072H545.031L543.981 338.102C546.423 334.342 549.068 332.462 551.916 332.462C552.925 332.462 554.007 332.714 555.163 333.219L552.478 338.956C551.843 338.728 551.167 338.614 550.451 338.614C549.247 338.614 548.018 339.07 546.765 339.981C545.528 340.893 544.559 342.114 543.859 343.644C543.16 345.157 542.468 347.566 541.784 350.87L540.075 359H533.068L538.488 333.072Z" fill="black"/>
<path d="M570.529 350.064H564.23C564.556 347.883 565.231 345.995 566.257 344.4C567.299 342.789 569.374 340.641 572.482 337.955C575.103 335.66 576.641 334.146 577.097 333.414C577.569 332.682 577.805 331.974 577.805 331.29C577.805 330.281 577.406 329.443 576.608 328.775C575.811 328.092 574.59 327.75 572.946 327.75C571.123 327.75 569.634 328.246 568.479 329.239C567.323 330.232 566.501 331.819 566.013 334L559.592 332.877C560.422 329.703 562.025 327.197 564.401 325.357C566.778 323.518 569.667 322.599 573.068 322.599C576.617 322.599 579.383 323.486 581.369 325.26C583.355 327.018 584.348 329.125 584.348 331.583C584.348 333.015 583.924 334.448 583.078 335.88C582.232 337.296 579.912 339.575 576.12 342.716C573.744 344.701 572.279 346.085 571.726 346.866C571.172 347.647 570.773 348.714 570.529 350.064ZM563.498 352.237H570.432L569.016 359H562.082L563.498 352.237Z" fill="black"/>
</svg>
