<svg id="레이어_1" data-name="레이어 1" xmlns="http://www.w3.org/2000/svg" viewBox="0 0 684.55 665.23"><path d="M275.37,57.7h12.12l-34.68,53.09v43.94H242.53V110.79L207.92,57.7h12.13l27.62,42.48Z"/><path d="M321.29,156.53a35.69,35.69,0,0,1-18.48-4.92,37.46,37.46,0,0,1-13.3-13.2,35,35,0,0,1-5-18.33,35.5,35.5,0,0,1,2.87-14.25A36.94,36.94,0,0,1,307,86.32a36.16,36.16,0,0,1,14.26-2.84,35.68,35.68,0,0,1,18.47,4.92,37.33,37.33,0,0,1,13.3,13.24,36.6,36.6,0,0,1,2.1,32.58,37.53,37.53,0,0,1-7.9,11.61,36.8,36.8,0,0,1-11.69,7.86A35.83,35.83,0,0,1,321.29,156.53Zm0-9.7a25,25,0,0,0,13.48-3.71,27.28,27.28,0,0,0,9.47-9.8,26.18,26.18,0,0,0,3.49-13.24,26.45,26.45,0,0,0-3.52-13.42,27.35,27.35,0,0,0-9.52-9.8,26.31,26.31,0,0,0-26.89,0,27.31,27.31,0,0,0-9.47,9.81,26.43,26.43,0,0,0-3.49,13.38,26,26,0,0,0,3.6,13.55,27.06,27.06,0,0,0,9.62,9.63A25.47,25.47,0,0,0,321.29,146.83Z"/><path d="M369.77,122.57V85.42h10.29V122.3a25.72,25.72,0,0,0,3.05,12.44,24.23,24.23,0,0,0,8.26,9,21.12,21.12,0,0,0,11.69,3.36,20.28,20.28,0,0,0,11.46-3.36,23.51,23.51,0,0,0,8-9,26.91,26.91,0,0,0,2.9-12.44V85.42h10.28v69.31H425.39V143.09A31,31,0,0,1,415.21,153a25.89,25.89,0,0,1-13.48,3.6,29.62,29.62,0,0,1-16.57-4.67A32.6,32.6,0,0,1,374,139.48,37.46,37.46,0,0,1,369.77,122.57Z"/><path d="M494.38,94.85a19,19,0,0,0-3.9-1.39,19.36,19.36,0,0,0-4.41-.48,20.48,20.48,0,0,0-11.46,3.32,23.36,23.36,0,0,0-8,9,26.65,26.65,0,0,0-2.94,12.51v36.94H453.31V85.42h10.28V97a30.47,30.47,0,0,1,10.25-9.88,26.47,26.47,0,0,1,13.56-3.57,41.26,41.26,0,0,1,4.52.24,22.3,22.3,0,0,1,4.15.87Z"/><path d="M139.34,567.7h19.52V449.3H139.34v-2.42H196v2.42H176.44V567.7h31.3q15.47,0,24.26-9.52t12.83-26h1.94v37.91H139.34Z"/><path d="M259.43,567.7H273V498.29H259.43v-2.43h28.65V567.7h13.54v2.42H259.43Zm11.42-112.17a8.78,8.78,0,0,1,2.73-6.49,9.44,9.44,0,0,1,13.18,0,9.08,9.08,0,0,1,0,13,9.42,9.42,0,0,1-13.18,0A8.75,8.75,0,0,1,270.85,455.53Z"/><path d="M314.28,558.87a17.11,17.11,0,0,1,1.76-8,23.14,23.14,0,0,1,4.31-5.88,23.4,23.4,0,0,1,5.45-4.07c1.93-1,3.66-1.9,5.18-2.6q-10.2-6.91-10.2-18.69a20.33,20.33,0,0,1,3-10.91,28.92,28.92,0,0,1,7.56-8.22,33.71,33.71,0,0,1,10.1-5.1,35.43,35.43,0,0,1,10.64-1.73,28.06,28.06,0,0,1,13.63,3.11,38.68,38.68,0,0,1,8.35,5.71,20.63,20.63,0,0,1,5.71-6.06,15.54,15.54,0,0,1,9.41-2.76,14.52,14.52,0,0,1,6.5,1.47q3,1.47,3,6.31a5.54,5.54,0,0,1-2,4.68,6.71,6.71,0,0,1-4.13,1.55,4.13,4.13,0,0,1-3.52-1.38,19.39,19.39,0,0,1-1.85-2.94c-.52-1-1.08-2-1.66-2.94a2.92,2.92,0,0,0-2.64-1.39,5.87,5.87,0,0,0-3.61,1.47,18,18,0,0,0-3.25,3.38,37.52,37.52,0,0,1,4,5.88,20,20,0,0,1,2.47,10.39,17.92,17.92,0,0,1-2.64,9.52,27.49,27.49,0,0,1-6.95,7.61,32.44,32.44,0,0,1-10,5.11,38.42,38.42,0,0,1-11.69,1.82,31.53,31.53,0,0,1-10.72-1.65,70,70,0,0,1-7-2.85q-1.94.87-4.13,1.9a18.22,18.22,0,0,0-4,2.6,13.58,13.58,0,0,0-3.08,3.72,9.8,9.8,0,0,0-1.23,4.93,8.13,8.13,0,0,0,1.06,4.33,6.92,6.92,0,0,0,2.72,2.6,12.71,12.71,0,0,0,3.78,1.21,27.25,27.25,0,0,0,4.4.34H360.7q12.3,0,19.6,5.8t7.3,18.26a28.91,28.91,0,0,1-3.34,13.85A36.22,36.22,0,0,1,375.38,610a41.3,41.3,0,0,1-12.75,7.1,44.72,44.72,0,0,1-14.77,2.51,47.65,47.65,0,0,1-12.57-1.56,36.54,36.54,0,0,1-9.94-4.24,20.86,20.86,0,0,1-6.59-6.49,15.75,15.75,0,0,1-2.37-8.49,18.24,18.24,0,0,1,1.84-8.22,24.54,24.54,0,0,1,4.75-6.57,31,31,0,0,1,6.6-4.94,53.23,53.23,0,0,1,7.38-3.46v-.35q-11.61,0-17.14-3.72T314.28,558.87Zm26.37,16.44c-1.52.92-3.08,1.88-4.66,2.86a17.09,17.09,0,0,0-4.22,3.72,18.56,18.56,0,0,0-3,5.28A25.31,25.31,0,0,0,329.84,605a19.46,19.46,0,0,0,5.63,6.58,21.46,21.46,0,0,0,7.64,3.54,34.19,34.19,0,0,0,8.27,1,33.13,33.13,0,0,0,11.51-1.9,29.3,29.3,0,0,0,9-5.11,22.46,22.46,0,0,0,5.8-7.35,19.55,19.55,0,0,0,2-8.66q0-9.69-5.37-13.76t-14.68-4.07Zm28.48-56.25a62.86,62.86,0,0,0-.52-8,23.5,23.5,0,0,0-2.2-7.44,13.17,13.17,0,0,0-5.1-5.46C359,496.73,356,496,352.08,496q-9,0-13.54,5.36T334,519.06a50.9,50.9,0,0,0,.79,9.35,18.42,18.42,0,0,0,2.91,7.18,13.16,13.16,0,0,0,5.62,4.59,22.22,22.22,0,0,0,9,1.55q9.14,0,13-5.62T369.13,519.06Z"/><path d="M402.19,567.7h13.53v-120H402.19v-2.43h28.66v68h.35a35.06,35.06,0,0,1,3-5.63,27.39,27.39,0,0,1,5.71-6.4,33.87,33.87,0,0,1,8.79-5.2,32.18,32.18,0,0,1,12.4-2.16q11.61,0,18.9,5.54t7.29,17.66V567.7h13.54v2.42H458.63V567.7h13.53V511.79q0-6.75-3.25-11.08t-10.11-4.33a24.61,24.61,0,0,0-10.72,2.43,28.29,28.29,0,0,0-9,6.75A31.92,31.92,0,0,0,433,515.77a36.46,36.46,0,0,0-2.19,12.81V567.7h13.53v2.42H402.19Z"/><path d="M508.21,495.86h13.53V473.53q1.41.53,2.64.87a17.65,17.65,0,0,0,4.22.35,15.14,15.14,0,0,0,4.57-.61,11.28,11.28,0,0,0,3.69-2v23.71h25v2.43h-25v56.6a26.35,26.35,0,0,0,1,7.88,11.73,11.73,0,0,0,2.55,4.67,7.59,7.59,0,0,0,3.43,2.16,13.11,13.11,0,0,0,3.6.52,12.48,12.48,0,0,0,9.94-4.41,21.28,21.28,0,0,0,4.83-10.13l2.46.87a40.24,40.24,0,0,1-1.58,5,17.65,17.65,0,0,1-3.25,5.28,17.1,17.1,0,0,1-5.71,4.15,20.73,20.73,0,0,1-8.8,1.64q-13.18,0-18.37-5t-5.19-14.19v-55H508.21Z"/><path d="M302.37,253.37q8.79,16.33,3.35,41.78Q299.86,322.71,282,341q-21,21.44-51.41,21.44-28.38,0-40.61-18.76-10.62-18.09-4.77-45.72,5.28-24.95,21.44-42.7,20.76-22.77,51.91-22.77Q291.15,232.44,302.37,253.37Zm-13.82,42q4.6-21.67-3.89-34.91t-28.18-13.23q-19.08,0-33.94,13.1T202.23,299q-4.35,20.43,3,34.46t30.56,14q22,0,35.21-15.78A82.27,82.27,0,0,0,288.55,295.4Z"/><path d="M336,269.11l2.26,70.67,32.48-70.67h16.92l2.68,70.25,33.24-70.25h15.07l-45.05,89.68H378l-3.51-69.42-32.4,69.42H326.4l-6.87-89.68Z"/><path d="M452.91,269.11h14.32l-2.68,12.73q8-7.87,15.87-11.3A40.7,40.7,0,0,1,497,267.1q19.1,0,22.94,13.32,2.19,7.27-.67,20.84L507,358.79H491.68l12-56.52q1.75-8.2.42-13.23-2.26-8.37-12.81-8.37a32.11,32.11,0,0,0-9,1.09,32.75,32.75,0,0,0-19.3,16.53,69,69,0,0,0-4,13.52l-10,47H433.91Z"/></svg>